M48
INCH,LZ
;FILE_FORMAT=2:4
;TYPE=PLATED
;Layer: PTH_Through_Via
;EasyEDA v6.5.44, 2024-09-01 12:15:54
;62699ee94d054cea995aae1e18215b50,9332716679504667801b7cb99b0421ba,10
;Gerber Generator version 0.2
;Holesize 1 = 0.0100 inch
T01C0.0100
;Holesize 2 = 0.0120 inch
T02C0.0120
%
G05
G90
T01
X019288Y021591
X018737Y021591
X018737Y021040
X019288Y021040
X019564Y021315
X019013Y021315
X018461Y021315
X018737Y022142
X019288Y022142
X019564Y021866
X019013Y021866
X018461Y021866
T02
X014250Y017200
X016552Y018000
X015000Y017150
X018050Y018050
X017552Y023950
X017052Y023900
X019200Y018200
X025029Y018502
X025029Y018842
X021517Y023799
X020946Y016881
X021631Y016987
X020189Y016898
X024303Y017170
X024597Y017310
X024918Y017428
X020638Y026118
X023447Y025458
X023661Y025872
X022056Y018104
X024915Y016126
X025634Y015070
X026120Y015056
X025898Y025577
X026218Y025527
X020778Y027537
X029100Y025450
X016531Y023927
X020187Y021496
X020187Y021206
X020157Y020886
X020207Y020406
X016727Y026421
X026550Y024050
X026743Y023857
X028116Y024000
X028500Y023850
X028250Y020050
X028270Y019699
X027500Y023950
X024900Y023150
X025150Y023350
X026550Y024450
X026578Y021600
X026578Y021247
M30
