G04 Layer: TopSilkscreenLayer*
G04 EasyEDA v6.5.44, 2024-09-01 12:15:54*
G04 62699ee94d054cea995aae1e18215b50,9332716679504667801b7cb99b0421ba,10*
G04 Gerber Generator version 0.2*
G04 Scale: 100 percent, Rotated: No, Reflected: No *
G04 Dimensions in inches *
G04 leading zeros omitted , absolute positions ,3 integer and 6 decimal *
%FSLAX36Y36*%
%MOIN*%

%ADD10C,0.0080*%
%ADD11C,0.0060*%
%ADD12C,0.0060*%
%ADD13C,0.0100*%

%LPD*%
D10*
X2555699Y2818600D02*
G01*
X2555699Y2775599D01*
X2555699Y2818600D02*
G01*
X2574099Y2818600D01*
X2580200Y2816500D01*
X2582200Y2814499D01*
X2584300Y2810399D01*
X2584300Y2806300D01*
X2582200Y2802199D01*
X2580200Y2800100D01*
X2574099Y2798099D01*
X2555699Y2798099D01*
X2570000Y2798099D02*
G01*
X2584300Y2775599D01*
X2626400Y2812399D02*
G01*
X2622299Y2816500D01*
X2616199Y2818600D01*
X2608000Y2818600D01*
X2601899Y2816500D01*
X2597799Y2812399D01*
X2597799Y2808299D01*
X2599799Y2804200D01*
X2601899Y2802199D01*
X2606000Y2800100D01*
X2618199Y2796100D01*
X2622299Y2794000D01*
X2624399Y2791999D01*
X2626400Y2787899D01*
X2626400Y2781700D01*
X2622299Y2777600D01*
X2616199Y2775599D01*
X2608000Y2775599D01*
X2601899Y2777600D01*
X2597799Y2781700D01*
X2654200Y2818600D02*
G01*
X2654200Y2775599D01*
X2639899Y2818600D02*
G01*
X2668599Y2818600D01*
X2939252Y2431801D02*
G01*
X2982253Y2431801D01*
X2939252Y2431801D02*
G01*
X2939252Y2450201D01*
X2941352Y2456300D01*
X2943352Y2458400D01*
X2947452Y2460401D01*
X2953553Y2460401D01*
X2957653Y2458400D01*
X2959753Y2456300D01*
X2961752Y2450201D01*
X2961752Y2431801D01*
X2939252Y2473901D02*
G01*
X2982253Y2484101D01*
X2939252Y2494400D02*
G01*
X2982253Y2484101D01*
X2939252Y2494400D02*
G01*
X2982253Y2504600D01*
X2939252Y2514801D02*
G01*
X2982253Y2504600D01*
X2939252Y2528301D02*
G01*
X2982253Y2528301D01*
X2939252Y2528301D02*
G01*
X2939252Y2546700D01*
X2941352Y2552901D01*
X2943352Y2554901D01*
X2947452Y2557001D01*
X2951553Y2557001D01*
X2955653Y2554901D01*
X2957653Y2552901D01*
X2959753Y2546700D01*
X2959753Y2528301D01*
X2959753Y2542600D02*
G01*
X2982253Y2557001D01*
X2996553Y2570500D02*
G01*
X2996553Y2607301D01*
X2939252Y2620801D02*
G01*
X2982253Y2620801D01*
X2982253Y2620801D02*
G01*
X2982253Y2645300D01*
X2939252Y2658800D02*
G01*
X2982253Y2658800D01*
X2939252Y2658800D02*
G01*
X2939252Y2685401D01*
X2959753Y2658800D02*
G01*
X2959753Y2675201D01*
X2982253Y2658800D02*
G01*
X2982253Y2685401D01*
X2939252Y2698901D02*
G01*
X2982253Y2698901D01*
X2939252Y2698901D02*
G01*
X2939252Y2713200D01*
X2941352Y2719400D01*
X2945452Y2723501D01*
X2949453Y2725500D01*
X2955653Y2727501D01*
X2965852Y2727501D01*
X2971953Y2725500D01*
X2976053Y2723501D01*
X2980153Y2719400D01*
X2982253Y2713200D01*
X2982253Y2698901D01*
X2213366Y1626367D02*
G01*
X2213366Y1595767D01*
X2215366Y1589567D01*
X2219467Y1585466D01*
X2225567Y1583467D01*
X2229666Y1583467D01*
X2235866Y1585466D01*
X2239966Y1589567D01*
X2241967Y1595767D01*
X2241967Y1626367D01*
X2284066Y1620266D02*
G01*
X2279966Y1624367D01*
X2273867Y1626367D01*
X2265667Y1626367D01*
X2259566Y1624367D01*
X2255466Y1620266D01*
X2255466Y1616167D01*
X2257466Y1612067D01*
X2259566Y1610066D01*
X2263666Y1607966D01*
X2275967Y1603867D01*
X2279966Y1601867D01*
X2282066Y1599866D01*
X2284066Y1595767D01*
X2284066Y1589567D01*
X2279966Y1585466D01*
X2273867Y1583467D01*
X2265667Y1583467D01*
X2259566Y1585466D01*
X2255466Y1589567D01*
X2297566Y1626367D02*
G01*
X2297566Y1583467D01*
X2297566Y1626367D02*
G01*
X2324166Y1626367D01*
X2297566Y1605967D02*
G01*
X2313967Y1605967D01*
X2297566Y1583467D02*
G01*
X2324166Y1583467D01*
X2337667Y1626367D02*
G01*
X2337667Y1583467D01*
X2337667Y1626367D02*
G01*
X2356067Y1626367D01*
X2362267Y1624367D01*
X2364267Y1622366D01*
X2366367Y1618267D01*
X2366367Y1614167D01*
X2364267Y1610066D01*
X2362267Y1607966D01*
X2356067Y1605967D01*
X2337667Y1605967D01*
X2351967Y1605967D02*
G01*
X2366367Y1583467D01*
X2379867Y1569167D02*
G01*
X2416666Y1569167D01*
X2430167Y1626367D02*
G01*
X2430167Y1583467D01*
X2430167Y1583467D02*
G01*
X2454666Y1583467D01*
X2468167Y1626367D02*
G01*
X2468167Y1583467D01*
X2468167Y1626367D02*
G01*
X2494767Y1626367D01*
X2468167Y1605967D02*
G01*
X2484566Y1605967D01*
X2468167Y1583467D02*
G01*
X2494767Y1583467D01*
X2508266Y1626367D02*
G01*
X2508266Y1583467D01*
X2508266Y1626367D02*
G01*
X2522566Y1626367D01*
X2528766Y1624367D01*
X2532866Y1620266D01*
X2534867Y1616167D01*
X2536967Y1610066D01*
X2536967Y1599866D01*
X2534867Y1593667D01*
X2532866Y1589567D01*
X2528766Y1585466D01*
X2522566Y1583467D01*
X2508266Y1583467D01*
X1915970Y1463314D02*
G01*
X1895470Y1463314D01*
X1893470Y1444814D01*
X1895470Y1446914D01*
X1901670Y1448913D01*
X1907771Y1448913D01*
X1913971Y1446914D01*
X1917970Y1442813D01*
X1920070Y1436714D01*
X1920070Y1432613D01*
X1917970Y1426413D01*
X1913971Y1422314D01*
X1907771Y1420313D01*
X1901670Y1420313D01*
X1895470Y1422314D01*
X1893470Y1424414D01*
X1891471Y1428514D01*
X1933571Y1463314D02*
G01*
X1949970Y1420313D01*
X1966270Y1463314D02*
G01*
X1949970Y1420313D01*
X1836441Y1450942D02*
G01*
X1834341Y1454942D01*
X1830241Y1459041D01*
X1826141Y1461141D01*
X1817942Y1461141D01*
X1813941Y1459041D01*
X1809841Y1454942D01*
X1807741Y1450942D01*
X1805742Y1444742D01*
X1805742Y1434542D01*
X1807741Y1428442D01*
X1809841Y1424342D01*
X1813941Y1420241D01*
X1817942Y1418141D01*
X1826141Y1418141D01*
X1830241Y1420241D01*
X1834341Y1424342D01*
X1836441Y1428442D01*
X1836441Y1434542D01*
X1826141Y1434542D02*
G01*
X1836441Y1434542D01*
X1697827Y1457258D02*
G01*
X1701927Y1459257D01*
X1708127Y1465457D01*
X1708127Y1422458D01*
X1723627Y1455158D02*
G01*
X1723627Y1457258D01*
X1725627Y1461358D01*
X1727727Y1463357D01*
X1731827Y1465457D01*
X1740028Y1465457D01*
X1744128Y1463357D01*
X1746127Y1461358D01*
X1748127Y1457258D01*
X1748127Y1453157D01*
X1746127Y1449058D01*
X1742028Y1442957D01*
X1721628Y1422458D01*
X1750227Y1422458D01*
X1597899Y1457199D02*
G01*
X1601899Y1459299D01*
X1608100Y1465399D01*
X1608100Y1422500D01*
X1625699Y1465399D02*
G01*
X1648199Y1465399D01*
X1635900Y1449000D01*
X1641999Y1449000D01*
X1646099Y1446999D01*
X1648199Y1445000D01*
X1650200Y1438800D01*
X1650200Y1434699D01*
X1648199Y1428600D01*
X1644099Y1424499D01*
X1637899Y1422500D01*
X1631800Y1422500D01*
X1625699Y1424499D01*
X1623599Y1426500D01*
X1621599Y1430599D01*
X1398599Y1457199D02*
G01*
X1402700Y1459299D01*
X1408800Y1465399D01*
X1408800Y1422500D01*
X1442799Y1465399D02*
G01*
X1422299Y1436799D01*
X1453000Y1436799D01*
X1442799Y1465399D02*
G01*
X1442799Y1422500D01*
X1498599Y1451500D02*
G01*
X1502700Y1453600D01*
X1508800Y1459699D01*
X1508800Y1416700D01*
X1546800Y1459699D02*
G01*
X1526400Y1459699D01*
X1524300Y1441300D01*
X1526400Y1443299D01*
X1532500Y1445399D01*
X1538699Y1445399D01*
X1544799Y1443299D01*
X1548900Y1439200D01*
X1550900Y1433099D01*
X1550900Y1429000D01*
X1548900Y1422899D01*
X1544799Y1418800D01*
X1538699Y1416700D01*
X1532500Y1416700D01*
X1526400Y1418800D01*
X1524300Y1420799D01*
X1522299Y1424899D01*
X1304899Y1452300D02*
G01*
X1304899Y1454400D01*
X1306899Y1458499D01*
X1308999Y1460500D01*
X1313100Y1462600D01*
X1321300Y1462600D01*
X1325399Y1460500D01*
X1327399Y1458499D01*
X1329399Y1454400D01*
X1329399Y1450300D01*
X1327399Y1446199D01*
X1323299Y1440100D01*
X1302899Y1419600D01*
X1331499Y1419600D01*
X1218299Y1466100D02*
G01*
X1197899Y1437500D01*
X1228500Y1437500D01*
X1218299Y1466100D02*
G01*
X1218299Y1423200D01*
X2018800Y1454899D02*
G01*
X2018800Y1411999D01*
X2004499Y1454899D02*
G01*
X2033100Y1454899D01*
X2046599Y1454899D02*
G01*
X2075299Y1411999D01*
X2075299Y1454899D02*
G01*
X2046599Y1411999D01*
X2088800Y1454899D02*
G01*
X2088800Y1411999D01*
X2088800Y1454899D02*
G01*
X2103100Y1454899D01*
X2109200Y1452899D01*
X2113299Y1448800D01*
X2115399Y1444699D01*
X2117399Y1438499D01*
X2117399Y1428299D01*
X2115399Y1422199D01*
X2113299Y1418099D01*
X2109200Y1414000D01*
X2103100Y1411999D01*
X2088800Y1411999D01*
X2129499Y1455900D02*
G01*
X2129499Y1413000D01*
X2129499Y1455900D02*
G01*
X2147899Y1455900D01*
X2153999Y1453899D01*
X2156099Y1451799D01*
X2158100Y1447699D01*
X2158100Y1443600D01*
X2156099Y1439499D01*
X2153999Y1437500D01*
X2147899Y1435500D01*
X2129499Y1435500D01*
X2143800Y1435500D02*
G01*
X2158100Y1413000D01*
X2171599Y1455900D02*
G01*
X2200299Y1413000D01*
X2200299Y1455900D02*
G01*
X2171599Y1413000D01*
X2213800Y1455900D02*
G01*
X2213800Y1413000D01*
X2213800Y1455900D02*
G01*
X2228100Y1455900D01*
X2234200Y1453899D01*
X2238299Y1449800D01*
X2240399Y1445700D01*
X2242399Y1439499D01*
X2242399Y1429299D01*
X2240399Y1423200D01*
X2238299Y1419099D01*
X2234200Y1415000D01*
X2228100Y1413000D01*
X2213800Y1413000D01*
X2323000Y1453400D02*
G01*
X2323000Y1410500D01*
X2348800Y1453400D02*
G01*
X2344700Y1451399D01*
X2340600Y1447300D01*
X2338500Y1443200D01*
X2336499Y1436999D01*
X2336499Y1426799D01*
X2338500Y1420700D01*
X2340600Y1416599D01*
X2344700Y1412500D01*
X2348800Y1410500D01*
X2356999Y1410500D01*
X2361000Y1412500D01*
X2365100Y1416599D01*
X2367200Y1420700D01*
X2369200Y1426799D01*
X2369200Y1436999D01*
X2367200Y1443200D01*
X2365100Y1447300D01*
X2361000Y1451399D01*
X2356999Y1453400D01*
X2348800Y1453400D01*
X2395000Y1453400D02*
G01*
X2388900Y1451399D01*
X2384799Y1445199D01*
X2382700Y1435000D01*
X2382700Y1428899D01*
X2384799Y1418600D01*
X2388900Y1412500D01*
X2395000Y1410500D01*
X2399099Y1410500D01*
X2405200Y1412500D01*
X2409300Y1418600D01*
X2411400Y1428899D01*
X2411400Y1435000D01*
X2409300Y1445199D01*
X2405200Y1451399D01*
X2399099Y1453400D01*
X2395000Y1453400D01*
X1282251Y2838780D02*
G01*
X1282251Y2795880D01*
X1267951Y2838780D02*
G01*
X1296552Y2838780D01*
X1310051Y2838780D02*
G01*
X1338752Y2795880D01*
X1338752Y2838780D02*
G01*
X1310051Y2795880D01*
X1352251Y2838780D02*
G01*
X1352251Y2795880D01*
X1352251Y2838780D02*
G01*
X1366552Y2838780D01*
X1372651Y2836781D01*
X1376751Y2832680D01*
X1378851Y2828580D01*
X1380852Y2822381D01*
X1380852Y2812181D01*
X1378851Y2806080D01*
X1376751Y2801981D01*
X1372651Y2797881D01*
X1366552Y2795880D01*
X1352251Y2795880D01*
X1393446Y2838148D02*
G01*
X1393446Y2795248D01*
X1393446Y2838148D02*
G01*
X1411846Y2838148D01*
X1418046Y2836147D01*
X1420047Y2834047D01*
X1422147Y2829947D01*
X1422147Y2825947D01*
X1420047Y2821848D01*
X1418046Y2819747D01*
X1411846Y2817748D01*
X1393446Y2817748D01*
X1407746Y2817748D02*
G01*
X1422147Y2795248D01*
X1435646Y2838148D02*
G01*
X1464246Y2795248D01*
X1464246Y2838148D02*
G01*
X1435646Y2795248D01*
X1477746Y2838148D02*
G01*
X1477746Y2795248D01*
X1477746Y2838148D02*
G01*
X1492047Y2838148D01*
X1498247Y2836147D01*
X1502246Y2832048D01*
X1504346Y2827948D01*
X1506346Y2821848D01*
X1506346Y2811547D01*
X1504346Y2805448D01*
X1502246Y2801347D01*
X1498247Y2797247D01*
X1492047Y2795248D01*
X1477746Y2795248D01*
X1644615Y2824513D02*
G01*
X1642515Y2828514D01*
X1638514Y2832613D01*
X1634414Y2834713D01*
X1626215Y2834713D01*
X1622115Y2832613D01*
X1618014Y2828514D01*
X1616014Y2824513D01*
X1613914Y2818314D01*
X1613914Y2808114D01*
X1616014Y2802013D01*
X1618014Y2797914D01*
X1622115Y2793814D01*
X1626215Y2791714D01*
X1634414Y2791714D01*
X1638514Y2793814D01*
X1642515Y2797914D01*
X1644615Y2802013D01*
X1644615Y2808114D01*
X1634414Y2808114D02*
G01*
X1644615Y2808114D01*
X1692815Y2834686D02*
G01*
X1692815Y2791786D01*
X1718614Y2834686D02*
G01*
X1714515Y2832685D01*
X1710415Y2828586D01*
X1708415Y2824486D01*
X1706315Y2818285D01*
X1706315Y2808085D01*
X1708415Y2801986D01*
X1710415Y2797885D01*
X1714515Y2793786D01*
X1718614Y2791786D01*
X1726814Y2791786D01*
X1730915Y2793786D01*
X1735015Y2797885D01*
X1737015Y2801986D01*
X1739115Y2808085D01*
X1739115Y2818285D01*
X1737015Y2824486D01*
X1735015Y2828586D01*
X1730915Y2832685D01*
X1726814Y2834686D01*
X1718614Y2834686D01*
X1764814Y2834686D02*
G01*
X1758715Y2832685D01*
X1754615Y2826486D01*
X1752614Y2816286D01*
X1752614Y2810185D01*
X1754615Y2799886D01*
X1758715Y2793786D01*
X1764814Y2791786D01*
X1768914Y2791786D01*
X1775114Y2793786D01*
X1779215Y2799886D01*
X1781215Y2810185D01*
X1781215Y2816286D01*
X1779215Y2826486D01*
X1775114Y2832685D01*
X1768914Y2834686D01*
X1764814Y2834686D01*
X1802156Y2827228D02*
G01*
X1806256Y2829227D01*
X1812357Y2835428D01*
X1812357Y2792428D01*
X1850456Y2829227D02*
G01*
X1848356Y2833328D01*
X1842256Y2835428D01*
X1838157Y2835428D01*
X1831957Y2833328D01*
X1827956Y2827228D01*
X1825856Y2817028D01*
X1825856Y2806727D01*
X1827956Y2798627D01*
X1831957Y2794528D01*
X1838157Y2792428D01*
X1840156Y2792428D01*
X1846356Y2794528D01*
X1850456Y2798627D01*
X1852457Y2804728D01*
X1852457Y2806727D01*
X1850456Y2812928D01*
X1846356Y2817028D01*
X1840156Y2819027D01*
X1838157Y2819027D01*
X1831957Y2817028D01*
X1827956Y2812928D01*
X1825856Y2806727D01*
X1925671Y2826657D02*
G01*
X1923671Y2830657D01*
X1919570Y2834756D01*
X1915470Y2836857D01*
X1907271Y2836857D01*
X1903171Y2834756D01*
X1899071Y2830657D01*
X1897070Y2826657D01*
X1894970Y2820457D01*
X1894970Y2810257D01*
X1897070Y2804157D01*
X1899071Y2800057D01*
X1903171Y2795956D01*
X1907271Y2793856D01*
X1915470Y2793856D01*
X1919570Y2795956D01*
X1923671Y2800057D01*
X1925671Y2804157D01*
X1955571Y2836857D02*
G01*
X1939170Y2793856D01*
X1955571Y2836857D02*
G01*
X1971871Y2793856D01*
X1945271Y2808157D02*
G01*
X1965771Y2808157D01*
X1985370Y2836857D02*
G01*
X1985370Y2793856D01*
X1985370Y2836857D02*
G01*
X2001770Y2793856D01*
X2018171Y2836857D02*
G01*
X2001770Y2793856D01*
X2018171Y2836857D02*
G01*
X2018171Y2793856D01*
X2035771Y2836857D02*
G01*
X2058271Y2836857D01*
X2045970Y2820457D01*
X2052070Y2820457D01*
X2056171Y2818456D01*
X2058271Y2816356D01*
X2060271Y2810257D01*
X2060271Y2806156D01*
X2058271Y2800057D01*
X2054170Y2795956D01*
X2047970Y2793856D01*
X2041871Y2793856D01*
X2035771Y2795956D01*
X2033671Y2797957D01*
X2031670Y2802057D01*
X2073770Y2836857D02*
G01*
X2090171Y2793856D01*
X2106471Y2836857D02*
G01*
X2090171Y2793856D01*
X2124071Y2836857D02*
G01*
X2146571Y2836857D01*
X2134270Y2820457D01*
X2140470Y2820457D01*
X2144570Y2818456D01*
X2146571Y2816356D01*
X2148671Y2810257D01*
X2148671Y2806156D01*
X2146571Y2800057D01*
X2142470Y2795956D01*
X2136370Y2793856D01*
X2130271Y2793856D01*
X2124071Y2795956D01*
X2122070Y2797957D01*
X2119970Y2802057D01*
X1237187Y2832228D02*
G01*
X1235087Y2836228D01*
X1231086Y2840327D01*
X1226986Y2842428D01*
X1218787Y2842428D01*
X1214687Y2840327D01*
X1210586Y2836228D01*
X1208586Y2832228D01*
X1206486Y2826028D01*
X1206486Y2815828D01*
X1208586Y2809728D01*
X1210586Y2805628D01*
X1214687Y2801527D01*
X1218787Y2799427D01*
X1226986Y2799427D01*
X1231086Y2801527D01*
X1235087Y2805628D01*
X1237187Y2809728D01*
X1237187Y2815828D01*
X1226986Y2815828D02*
G01*
X1237187Y2815828D01*
X1248657Y2380743D02*
G01*
X1244557Y2384742D01*
X1238456Y2386842D01*
X1230257Y2386842D01*
X1224057Y2384742D01*
X1219957Y2380743D01*
X1219957Y2376642D01*
X1222057Y2372543D01*
X1224057Y2370443D01*
X1228157Y2368443D01*
X1240456Y2364342D01*
X1244557Y2362242D01*
X1246557Y2360243D01*
X1248657Y2356143D01*
X1248657Y2350043D01*
X1244557Y2345943D01*
X1238456Y2343843D01*
X1230257Y2343843D01*
X1224057Y2345943D01*
X1219957Y2350043D01*
X1262156Y2386842D02*
G01*
X1262156Y2343843D01*
X1262156Y2386842D02*
G01*
X1280556Y2386842D01*
X1286656Y2384742D01*
X1288756Y2382743D01*
X1290757Y2378643D01*
X1290757Y2372543D01*
X1288756Y2368443D01*
X1286656Y2366343D01*
X1280556Y2364342D01*
X1262156Y2364342D01*
X1304256Y2386842D02*
G01*
X1304256Y2343843D01*
X1321857Y2386842D02*
G01*
X1344357Y2386842D01*
X1332057Y2370443D01*
X1338257Y2370443D01*
X1342357Y2368443D01*
X1344357Y2366343D01*
X1346457Y2360243D01*
X1346457Y2356143D01*
X1344357Y2350043D01*
X1340257Y2345943D01*
X1334156Y2343843D01*
X1327956Y2343843D01*
X1321857Y2345943D01*
X1319857Y2347943D01*
X1317757Y2352042D01*
X1117799Y2281599D02*
G01*
X1115799Y2285700D01*
X1111700Y2289800D01*
X1107600Y2291799D01*
X1099399Y2291799D01*
X1095299Y2289800D01*
X1091199Y2285700D01*
X1089200Y2281599D01*
X1087100Y2275500D01*
X1087100Y2265200D01*
X1089200Y2259099D01*
X1091199Y2255000D01*
X1095299Y2250900D01*
X1099399Y2248899D01*
X1107600Y2248899D01*
X1111700Y2250900D01*
X1115799Y2255000D01*
X1117799Y2259099D01*
X1160000Y2285700D02*
G01*
X1155900Y2289800D01*
X1149700Y2291799D01*
X1141599Y2291799D01*
X1135399Y2289800D01*
X1131300Y2285700D01*
X1131300Y2281599D01*
X1133400Y2277500D01*
X1135399Y2275500D01*
X1139499Y2273400D01*
X1151800Y2269299D01*
X1155900Y2267300D01*
X1157899Y2265200D01*
X1160000Y2261199D01*
X1160000Y2255000D01*
X1155900Y2250900D01*
X1149700Y2248899D01*
X1141599Y2248899D01*
X1135399Y2250900D01*
X1131300Y2255000D01*
X1077200Y2196500D02*
G01*
X1077200Y2153499D01*
X1077200Y2196500D02*
G01*
X1093599Y2153499D01*
X1109899Y2196500D02*
G01*
X1093599Y2153499D01*
X1109899Y2196500D02*
G01*
X1109899Y2153499D01*
X1135699Y2196500D02*
G01*
X1131599Y2194400D01*
X1127500Y2190300D01*
X1125500Y2186300D01*
X1123400Y2180100D01*
X1123400Y2169899D01*
X1125500Y2163800D01*
X1127500Y2159699D01*
X1131599Y2155599D01*
X1135699Y2153499D01*
X1143900Y2153499D01*
X1148000Y2155599D01*
X1152100Y2159699D01*
X1154099Y2163800D01*
X1156199Y2169899D01*
X1156199Y2180100D01*
X1154099Y2186300D01*
X1152100Y2190300D01*
X1148000Y2194400D01*
X1143900Y2196500D01*
X1135699Y2196500D01*
X1198299Y2190300D02*
G01*
X1194200Y2194400D01*
X1188100Y2196500D01*
X1179899Y2196500D01*
X1173800Y2194400D01*
X1169700Y2190300D01*
X1169700Y2186300D01*
X1171700Y2182199D01*
X1173800Y2180100D01*
X1177899Y2178099D01*
X1190100Y2174000D01*
X1194200Y2171900D01*
X1196300Y2169899D01*
X1198299Y2165799D01*
X1198299Y2159699D01*
X1194200Y2155599D01*
X1188100Y2153499D01*
X1179899Y2153499D01*
X1173800Y2155599D01*
X1169700Y2159699D01*
X1211800Y2196500D02*
G01*
X1211800Y2153499D01*
X1117799Y2082300D02*
G01*
X1115799Y2086399D01*
X1111700Y2090500D01*
X1107600Y2092600D01*
X1099399Y2092600D01*
X1095299Y2090500D01*
X1091199Y2086399D01*
X1089200Y2082300D01*
X1087100Y2076199D01*
X1087100Y2065999D01*
X1089200Y2059800D01*
X1091199Y2055700D01*
X1095299Y2051599D01*
X1099399Y2049600D01*
X1107600Y2049600D01*
X1111700Y2051599D01*
X1115799Y2055700D01*
X1117799Y2059800D01*
X1131300Y2092600D02*
G01*
X1131300Y2049600D01*
X1131300Y2049600D02*
G01*
X1155900Y2049600D01*
X1169399Y2092600D02*
G01*
X1169399Y2049600D01*
X1198000Y2092600D02*
G01*
X1169399Y2063899D01*
X1179600Y2074099D02*
G01*
X1198000Y2049600D01*
X1079700Y1990700D02*
G01*
X1079700Y1947800D01*
X1079700Y1990700D02*
G01*
X1096000Y1947800D01*
X1112399Y1990700D02*
G01*
X1096000Y1947800D01*
X1112399Y1990700D02*
G01*
X1112399Y1947800D01*
X1125900Y1990700D02*
G01*
X1125900Y1947800D01*
X1168000Y1984600D02*
G01*
X1163900Y1988699D01*
X1157799Y1990700D01*
X1149600Y1990700D01*
X1143500Y1988699D01*
X1139399Y1984600D01*
X1139399Y1980500D01*
X1141400Y1976399D01*
X1143500Y1974400D01*
X1147600Y1972300D01*
X1159799Y1968200D01*
X1163900Y1966199D01*
X1166000Y1964200D01*
X1168000Y1960100D01*
X1168000Y1953899D01*
X1163900Y1949800D01*
X1157799Y1947800D01*
X1149600Y1947800D01*
X1143500Y1949800D01*
X1139399Y1953899D01*
X1193800Y1990700D02*
G01*
X1189700Y1988699D01*
X1185600Y1984600D01*
X1183599Y1980500D01*
X1181499Y1974400D01*
X1181499Y1964200D01*
X1183599Y1958000D01*
X1185600Y1953899D01*
X1189700Y1949800D01*
X1193800Y1947800D01*
X1201999Y1947800D01*
X1206099Y1949800D01*
X1210200Y1953899D01*
X1212200Y1958000D01*
X1214300Y1964200D01*
X1214300Y1974400D01*
X1212200Y1980500D01*
X1210200Y1984600D01*
X1206099Y1988699D01*
X1201999Y1990700D01*
X1193800Y1990700D01*
X2406000Y2412199D02*
G01*
X2410100Y2414299D01*
X2416199Y2420399D01*
X2416199Y2377500D01*
X2458400Y2420399D02*
G01*
X2437899Y2377500D01*
X2429700Y2420399D02*
G01*
X2458400Y2420399D01*
X2405000Y2309200D02*
G01*
X2409099Y2311300D01*
X2415200Y2317399D01*
X2415200Y2274499D01*
X2438999Y2317399D02*
G01*
X2432799Y2315399D01*
X2430799Y2311300D01*
X2430799Y2307199D01*
X2432799Y2303099D01*
X2436899Y2300999D01*
X2445100Y2299000D01*
X2451199Y2296999D01*
X2455299Y2292899D01*
X2457399Y2288800D01*
X2457399Y2282600D01*
X2455299Y2278499D01*
X2453299Y2276500D01*
X2447100Y2274499D01*
X2438999Y2274499D01*
X2432799Y2276500D01*
X2430799Y2278499D01*
X2428699Y2282600D01*
X2428699Y2288800D01*
X2430799Y2292899D01*
X2434899Y2296999D01*
X2441000Y2299000D01*
X2449200Y2300999D01*
X2453299Y2303099D01*
X2455299Y2307199D01*
X2455299Y2311300D01*
X2453299Y2315399D01*
X2447100Y2317399D01*
X2438999Y2317399D01*
X2413699Y2218200D02*
G01*
X2417799Y2220300D01*
X2423900Y2226399D01*
X2423900Y2183499D01*
X2463999Y2212100D02*
G01*
X2461899Y2205999D01*
X2457799Y2201900D01*
X2451700Y2199800D01*
X2449700Y2199800D01*
X2443500Y2201900D01*
X2439399Y2205999D01*
X2437399Y2212100D01*
X2437399Y2214099D01*
X2439399Y2220300D01*
X2443500Y2224400D01*
X2449700Y2226399D01*
X2451700Y2226399D01*
X2457799Y2224400D01*
X2461899Y2220300D01*
X2463999Y2212100D01*
X2463999Y2201900D01*
X2461899Y2191599D01*
X2457799Y2185500D01*
X2451700Y2183499D01*
X2447600Y2183499D01*
X2441499Y2185500D01*
X2439399Y2189600D01*
X2410500Y2112199D02*
G01*
X2410500Y2114200D01*
X2412600Y2118299D01*
X2414600Y2120399D01*
X2418699Y2122399D01*
X2426899Y2122399D01*
X2431000Y2120399D01*
X2433000Y2118299D01*
X2435100Y2114200D01*
X2435100Y2110100D01*
X2433000Y2105999D01*
X2428999Y2099899D01*
X2408500Y2079499D01*
X2437100Y2079499D01*
X2462899Y2122399D02*
G01*
X2456800Y2120399D01*
X2452700Y2114200D01*
X2450600Y2104000D01*
X2450600Y2097899D01*
X2452700Y2087600D01*
X2456800Y2081500D01*
X2462899Y2079499D01*
X2466999Y2079499D01*
X2473100Y2081500D01*
X2477200Y2087600D01*
X2479300Y2097899D01*
X2479300Y2104000D01*
X2477200Y2114200D01*
X2473100Y2120399D01*
X2466999Y2122399D01*
X2462899Y2122399D01*
X2441599Y2029299D02*
G01*
X2437500Y2033400D01*
X2431400Y2035399D01*
X2423199Y2035399D01*
X2417100Y2033400D01*
X2413000Y2029299D01*
X2413000Y2025199D01*
X2415000Y2021100D01*
X2417100Y2019000D01*
X2421199Y2016999D01*
X2433500Y2012899D01*
X2437500Y2010900D01*
X2439600Y2008800D01*
X2441599Y2004699D01*
X2441599Y1998600D01*
X2437500Y1994499D01*
X2431400Y1992500D01*
X2423199Y1992500D01*
X2417100Y1994499D01*
X2413000Y1998600D01*
X2455100Y2035399D02*
G01*
X2455100Y1992500D01*
X2455100Y2035399D02*
G01*
X2469499Y2035399D01*
X2475600Y2033400D01*
X2479700Y2029299D01*
X2481700Y2025199D01*
X2483800Y2019000D01*
X2483800Y2008800D01*
X2481700Y2002699D01*
X2479700Y1998600D01*
X2475600Y1994499D01*
X2469499Y1992500D01*
X2455100Y1992500D01*
X2513599Y2035399D02*
G01*
X2497299Y1992500D01*
X2513599Y2035399D02*
G01*
X2530000Y1992500D01*
X2503400Y2006799D02*
G01*
X2523900Y2006799D01*
X2439600Y1907300D02*
G01*
X2435500Y1911399D01*
X2429399Y1913400D01*
X2421199Y1913400D01*
X2415100Y1911399D01*
X2411000Y1907300D01*
X2411000Y1903200D01*
X2413000Y1899099D01*
X2415100Y1896999D01*
X2419200Y1895000D01*
X2431499Y1890900D01*
X2435500Y1888899D01*
X2437600Y1886799D01*
X2439600Y1882699D01*
X2439600Y1876599D01*
X2435500Y1872500D01*
X2429399Y1870500D01*
X2421199Y1870500D01*
X2415100Y1872500D01*
X2411000Y1876599D01*
X2483800Y1903200D02*
G01*
X2481800Y1907300D01*
X2477700Y1911399D01*
X2473599Y1913400D01*
X2465399Y1913400D01*
X2461300Y1911399D01*
X2457200Y1907300D01*
X2455200Y1903200D01*
X2453100Y1896999D01*
X2453100Y1886799D01*
X2455200Y1880700D01*
X2457200Y1876599D01*
X2461300Y1872500D01*
X2465399Y1870500D01*
X2473599Y1870500D01*
X2477700Y1872500D01*
X2481800Y1876599D01*
X2483800Y1880700D01*
X2497299Y1913400D02*
G01*
X2497299Y1870500D01*
X2497299Y1870500D02*
G01*
X2521899Y1870500D01*
X2474799Y2356100D02*
G01*
X2497299Y2356100D01*
X2485000Y2339800D01*
X2491199Y2339800D01*
X2495299Y2337700D01*
X2497299Y2335700D01*
X2499399Y2329499D01*
X2499399Y2325399D01*
X2497299Y2319299D01*
X2493199Y2315200D01*
X2487100Y2313200D01*
X2480900Y2313200D01*
X2474799Y2315200D01*
X2472799Y2317300D01*
X2470699Y2321399D01*
X2512899Y2356100D02*
G01*
X2529200Y2313200D01*
X2545600Y2356100D02*
G01*
X2529200Y2313200D01*
X2563199Y2356100D02*
G01*
X2585699Y2356100D01*
X2573400Y2339800D01*
X2579499Y2339800D01*
X2583599Y2337700D01*
X2585699Y2335700D01*
X2587700Y2329499D01*
X2587700Y2325399D01*
X2585699Y2319299D01*
X2581599Y2315200D01*
X2575399Y2313200D01*
X2569300Y2313200D01*
X2563199Y2315200D01*
X2561099Y2317300D01*
X2559099Y2321399D01*
X2564200Y1934400D02*
G01*
X2543800Y1934400D01*
X2541700Y1915999D01*
X2543800Y1918000D01*
X2549899Y1920100D01*
X2556000Y1920100D01*
X2562200Y1918000D01*
X2566300Y1914000D01*
X2568299Y1907800D01*
X2568299Y1903699D01*
X2566300Y1897600D01*
X2562200Y1893499D01*
X2556000Y1891500D01*
X2549899Y1891500D01*
X2543800Y1893499D01*
X2541700Y1895500D01*
X2539700Y1899600D01*
X2581800Y1934400D02*
G01*
X2598199Y1891500D01*
X2614499Y1934400D02*
G01*
X2598199Y1891500D01*
X2855100Y2007600D02*
G01*
X2855100Y1970799D01*
X2836700Y1989200D02*
G01*
X2873500Y1989200D01*
X2897200Y2013699D02*
G01*
X2891099Y2011700D01*
X2888999Y2007600D01*
X2888999Y2003499D01*
X2891099Y1999400D01*
X2895200Y1997399D01*
X2903299Y1995300D01*
X2909499Y1993299D01*
X2913599Y1989200D01*
X2915600Y1985100D01*
X2915600Y1979000D01*
X2913599Y1974899D01*
X2911499Y1972800D01*
X2905399Y1970799D01*
X2897200Y1970799D01*
X2891099Y1972800D01*
X2888999Y1974899D01*
X2886999Y1979000D01*
X2886999Y1985100D01*
X2888999Y1989200D01*
X2893100Y1993299D01*
X2899300Y1995300D01*
X2907399Y1997399D01*
X2911499Y1999400D01*
X2913599Y2003499D01*
X2913599Y2007600D01*
X2911499Y2011700D01*
X2905399Y2013699D01*
X2897200Y2013699D01*
X2929099Y2013699D02*
G01*
X2945500Y1970799D01*
X2961800Y2013699D02*
G01*
X2945500Y1970799D01*
X2999899Y2013699D02*
G01*
X2979399Y2013699D01*
X2977399Y1995300D01*
X2979399Y1997399D01*
X2985600Y1999400D01*
X2991700Y1999400D01*
X2997799Y1997399D01*
X3001899Y1993299D01*
X3003999Y1987199D01*
X3003999Y1983099D01*
X3001899Y1976900D01*
X2997799Y1972800D01*
X2991700Y1970799D01*
X2985600Y1970799D01*
X2979399Y1972800D01*
X2977399Y1974899D01*
X2975299Y1979000D01*
D11*
X2670200Y1649299D02*
G01*
X2674300Y1651399D01*
X2678400Y1655500D01*
X2680399Y1659499D01*
X2680399Y1667699D01*
X2678400Y1671799D01*
X2674300Y1675900D01*
X2670200Y1678000D01*
X2663999Y1680000D01*
X2653800Y1680000D01*
X2647700Y1678000D01*
X2643599Y1675900D01*
X2639499Y1671799D01*
X2637500Y1667699D01*
X2637500Y1659499D01*
X2639499Y1655500D01*
X2643599Y1651399D01*
X2647700Y1649299D01*
X2672200Y1635799D02*
G01*
X2674300Y1631700D01*
X2680399Y1625599D01*
X2637500Y1625599D01*
X2680399Y1599800D02*
G01*
X2678400Y1605999D01*
X2672200Y1610000D01*
X2661999Y1612100D01*
X2655900Y1612100D01*
X2645600Y1610000D01*
X2639499Y1605999D01*
X2637500Y1599800D01*
X2637500Y1595700D01*
X2639499Y1589600D01*
X2645600Y1585500D01*
X2655900Y1583499D01*
X2661999Y1583499D01*
X2672200Y1585500D01*
X2678400Y1589600D01*
X2680399Y1595700D01*
X2680399Y1599800D01*
X2509300Y2369800D02*
G01*
X2511400Y2365700D01*
X2515500Y2361599D01*
X2519499Y2359600D01*
X2527700Y2359600D01*
X2531800Y2361599D01*
X2535900Y2365700D01*
X2538000Y2369800D01*
X2540000Y2375999D01*
X2540000Y2386199D01*
X2538000Y2392300D01*
X2535900Y2396399D01*
X2531800Y2400500D01*
X2527700Y2402500D01*
X2519499Y2402500D01*
X2515500Y2400500D01*
X2511400Y2396399D01*
X2509300Y2392300D01*
X2495799Y2367800D02*
G01*
X2491700Y2365700D01*
X2485600Y2359600D01*
X2485600Y2402500D01*
X2470000Y2369800D02*
G01*
X2470000Y2367800D01*
X2468000Y2363699D01*
X2466000Y2361599D01*
X2461899Y2359600D01*
X2453699Y2359600D01*
X2449600Y2361599D01*
X2447500Y2363699D01*
X2445500Y2367800D01*
X2445500Y2371900D01*
X2447500Y2375999D01*
X2451599Y2382100D01*
X2472100Y2402500D01*
X2443500Y2402500D01*
X2698000Y2040399D02*
G01*
X2698000Y2009699D01*
X2700000Y2003600D01*
X2704099Y1999499D01*
X2710299Y1997500D01*
X2714399Y1997500D01*
X2720500Y1999499D01*
X2724600Y2003600D01*
X2726599Y2009699D01*
X2726599Y2040399D01*
X2764700Y2034299D02*
G01*
X2762600Y2038400D01*
X2756499Y2040399D01*
X2752399Y2040399D01*
X2746300Y2038400D01*
X2742200Y2032199D01*
X2740100Y2021999D01*
X2740100Y2011799D01*
X2742200Y2003600D01*
X2746300Y1999499D01*
X2752399Y1997500D01*
X2754499Y1997500D01*
X2760600Y1999499D01*
X2764700Y2003600D01*
X2766700Y2009699D01*
X2766700Y2011799D01*
X2764700Y2017899D01*
X2760600Y2021999D01*
X2754499Y2024000D01*
X2752399Y2024000D01*
X2746300Y2021999D01*
X2742200Y2017899D01*
X2740100Y2011799D01*
X2700000Y2530399D02*
G01*
X2700000Y2499699D01*
X2701999Y2493600D01*
X2706099Y2489499D01*
X2712299Y2487500D01*
X2716400Y2487500D01*
X2722500Y2489499D01*
X2726599Y2493600D01*
X2728599Y2499699D01*
X2728599Y2530399D01*
X2752399Y2530399D02*
G01*
X2746199Y2528400D01*
X2744200Y2524299D01*
X2744200Y2520200D01*
X2746199Y2516100D01*
X2750299Y2514000D01*
X2758500Y2511999D01*
X2764600Y2510000D01*
X2768699Y2505900D01*
X2770799Y2501799D01*
X2770799Y2495599D01*
X2768699Y2491500D01*
X2766700Y2489499D01*
X2760500Y2487500D01*
X2752399Y2487500D01*
X2746199Y2489499D01*
X2744200Y2491500D01*
X2742100Y2495599D01*
X2742100Y2501799D01*
X2744200Y2505900D01*
X2748299Y2510000D01*
X2754399Y2511999D01*
X2762600Y2514000D01*
X2766700Y2516100D01*
X2768699Y2520200D01*
X2768699Y2524299D01*
X2766700Y2528400D01*
X2760500Y2530399D01*
X2752399Y2530399D01*
G36*
X2545000Y1765000D02*
G01*
X2545000Y1750000D01*
X2625000Y1750000D01*
X2625000Y1765000D01*
G37*
G36*
X2610000Y2495000D02*
G01*
X2610000Y2415000D01*
X2625000Y2415000D01*
X2625000Y2495000D01*
G37*
D12*
X2625000Y1750000D02*
G01*
X2625000Y1765000D01*
X2545000Y1765000D01*
X2545000Y1750000D01*
X2625000Y1590000D02*
G01*
X2625000Y1750000D01*
X2545000Y1750000D01*
X2545000Y1590000D01*
X2625000Y1590000D01*
X2610000Y2415000D02*
G01*
X2625000Y2415000D01*
X2625000Y2495000D01*
X2610000Y2495000D01*
X2450000Y2415000D02*
G01*
X2610000Y2415000D01*
X2610000Y2495000D01*
X2450000Y2495000D01*
X2450000Y2415000D01*
D13*
X2634133Y1700237D02*
G01*
X2775865Y1700237D01*
X2634133Y1979762D02*
G01*
X2775865Y1979762D01*
X2775865Y1700237D02*
G01*
X2775865Y1979762D01*
X2634133Y1700237D02*
G01*
X2634134Y1979762D01*
D11*
X2646008Y2204047D02*
G01*
X2646008Y2465952D01*
X2753991Y2465952D01*
X2753991Y2204047D01*
X2646008Y2204047D01*
X2173693Y2514425D02*
G01*
X2229205Y2514425D01*
X2229205Y2585574D02*
G01*
X2173693Y2585574D01*
X2167692Y2579575D02*
G01*
X2167692Y2520425D01*
X2316306Y2514425D02*
G01*
X2260794Y2514425D01*
X2260794Y2585574D02*
G01*
X2316306Y2585574D01*
X2322307Y2579575D02*
G01*
X2322307Y2520425D01*
X2184988Y2600369D02*
G01*
X2216094Y2600369D01*
X2216094Y2639630D02*
G01*
X2184988Y2639630D01*
X2178987Y2633629D02*
G01*
X2178987Y2606370D01*
X2265011Y2600369D02*
G01*
X2233905Y2600369D01*
X2233905Y2639630D02*
G01*
X2265011Y2639630D01*
X2271012Y2633629D02*
G01*
X2271012Y2606370D01*
X2125011Y2589630D02*
G01*
X2093905Y2589630D01*
X2093905Y2550369D02*
G01*
X2125011Y2550369D01*
X2131012Y2556370D02*
G01*
X2131012Y2583629D01*
X2044988Y2589630D02*
G01*
X2076094Y2589630D01*
X2076094Y2550369D02*
G01*
X2044988Y2550369D01*
X2038987Y2556370D02*
G01*
X2038987Y2583629D01*
D13*
X1225000Y2025925D02*
G01*
X1225000Y2325000D01*
X1325000Y2325000D01*
X1325000Y1925000D01*
X1225000Y1925000D01*
X1225000Y2025925D01*
X1225000Y2025925D02*
G01*
X1325000Y2025925D01*
X2105925Y1565000D02*
G01*
X2405000Y1565000D01*
X2405000Y1465000D01*
X2005000Y1465000D01*
X2005000Y1565000D01*
X2105925Y1565000D01*
X2105925Y1565000D02*
G01*
X2105925Y1465000D01*
X1167124Y2780236D02*
G01*
X1167124Y2880236D01*
X1982872Y2780236D02*
G01*
X1167124Y2780236D01*
X1640352Y2880237D02*
G01*
X1640352Y3100565D01*
X1624458Y3116455D01*
X1606459Y2880237D02*
G01*
X1606459Y3101455D01*
X1621459Y3116455D01*
X1739638Y2880236D02*
G01*
X1739638Y3100563D01*
X1705744Y2880236D02*
G01*
X1705744Y3101455D01*
X1739638Y2880236D02*
G01*
X1739638Y3100563D01*
X1723743Y3116455D01*
X1705744Y2880236D02*
G01*
X1705744Y3101455D01*
X1720744Y3116455D01*
X1839601Y2880236D02*
G01*
X1839601Y3100563D01*
X1823707Y3116455D01*
X1805707Y2880236D02*
G01*
X1805707Y3101455D01*
X1820707Y3116455D01*
X1941963Y2880236D02*
G01*
X1941963Y3100563D01*
X1908069Y2880236D02*
G01*
X1908069Y3101455D01*
X1941963Y2880236D02*
G01*
X1941963Y3100563D01*
X1926071Y3116455D01*
X1908069Y2880236D02*
G01*
X1908069Y3101455D01*
X1923069Y3116455D01*
X1982872Y2880236D02*
G01*
X1167124Y2880236D01*
X1239638Y2880236D02*
G01*
X1239638Y3100563D01*
X1205744Y2880236D02*
G01*
X1205744Y3101455D01*
X1239638Y2880236D02*
G01*
X1239638Y3100563D01*
X1223743Y3116455D01*
X1205744Y2880236D02*
G01*
X1205744Y3101455D01*
X1220744Y3116455D01*
X1339601Y2880236D02*
G01*
X1339601Y3100563D01*
X1323707Y3116455D01*
X1305707Y2880236D02*
G01*
X1305707Y3101455D01*
X1320707Y3116455D01*
X1441963Y2880236D02*
G01*
X1441963Y3100563D01*
X1408069Y2880236D02*
G01*
X1408069Y3101455D01*
X1441963Y2880236D02*
G01*
X1441963Y3100563D01*
X1426071Y3116455D01*
X1408069Y2880236D02*
G01*
X1408069Y3101455D01*
X1423069Y3116455D01*
X1541927Y2880236D02*
G01*
X1541927Y3100563D01*
X1526033Y3116455D01*
X1508033Y2880236D02*
G01*
X1508033Y3101455D01*
X1523033Y3116455D01*
X1982872Y2880236D02*
G01*
X1982872Y2780236D01*
X2382255Y1714699D02*
G01*
X2366508Y1730446D01*
X2362570Y1734384D01*
X2358624Y1730446D01*
X2342875Y1714699D01*
X2382255Y1714699D02*
G01*
X2342875Y1714699D01*
X2322520Y1705122D02*
G01*
X2322520Y1644122D01*
X2402520Y1644122D01*
X2402520Y1705122D01*
X2321521Y1736122D02*
G01*
X2321521Y1794122D01*
X2337520Y1810122D01*
X2387520Y1810122D01*
X2402520Y1795122D01*
X2402520Y1735122D01*
X2819715Y2672053D02*
G01*
X2803968Y2656305D01*
X2800030Y2652368D01*
X2803968Y2648420D01*
X2819715Y2632673D01*
X2819715Y2672053D02*
G01*
X2819715Y2632673D01*
X2829291Y2612318D02*
G01*
X2890291Y2612318D01*
X2890291Y2692318D01*
X2829291Y2692318D01*
X2798292Y2611318D02*
G01*
X2740291Y2611318D01*
X2724291Y2627318D01*
X2724291Y2677318D01*
X2739291Y2692318D01*
X2799291Y2692318D01*
D11*
X2462097Y1633440D02*
G01*
X2433828Y1633440D01*
X2433828Y1672701D01*
X2462097Y1672701D01*
X2479908Y1633440D02*
G01*
X2508177Y1633440D01*
X2508177Y1672701D01*
X2479908Y1672701D01*
X2900370Y2613906D02*
G01*
X2900370Y2642175D01*
X2939629Y2642175D01*
X2939629Y2613906D01*
X2900370Y2596093D02*
G01*
X2900370Y2567824D01*
X2939629Y2567824D01*
X2939629Y2596093D01*
X2122560Y2601799D02*
G01*
X2094291Y2601799D01*
X2094291Y2641059D01*
X2122560Y2641059D01*
X2140372Y2601799D02*
G01*
X2168642Y2601799D01*
X2168642Y2641059D01*
X2140372Y2641059D01*
D13*
X2478900Y2520900D02*
G01*
X2478900Y2761100D01*
X2716199Y2761100D01*
X2716199Y2520900D01*
X2478900Y2520900D01*
X2232012Y1745000D02*
G01*
X2262674Y1745000D01*
X2262674Y2454331D02*
G01*
X2232012Y2454331D01*
X2262691Y2454331D02*
G01*
X2262674Y1745000D01*
X1494997Y1798182D02*
G01*
X1494997Y1745000D01*
X1528378Y1745000D01*
X1528378Y2454331D02*
G01*
X1494997Y2454331D01*
X1494997Y2401817D01*
X2899054Y2235000D02*
G01*
X2997479Y2235000D01*
X2997479Y2035000D02*
G01*
X2997479Y2235000D01*
X2899054Y2035000D02*
G01*
X2899054Y2235000D01*
X3233701Y2164899D02*
G01*
X3233701Y2204899D01*
X2997479Y2204899D02*
G01*
X3233701Y2204899D01*
X2997479Y2164899D02*
G01*
X3233701Y2164899D01*
X3233701Y2067096D02*
G01*
X3233701Y2107096D01*
X2997479Y2107096D02*
G01*
X3233701Y2107096D01*
X2997479Y2067096D02*
G01*
X3233701Y2067096D01*
X2899054Y2035000D02*
G01*
X2997479Y2035000D01*
D11*
X2125011Y2544630D02*
G01*
X2093905Y2544630D01*
X2093905Y2505369D02*
G01*
X2125011Y2505369D01*
X2131012Y2511370D02*
G01*
X2131012Y2538629D01*
X2044988Y2544630D02*
G01*
X2076094Y2544630D01*
X2076094Y2505369D02*
G01*
X2044988Y2505369D01*
X2038987Y2511370D02*
G01*
X2038987Y2538629D01*
G75*
G01*
X2173693Y2585575D02*
G03*
X2167693Y2579575I0J-6000D01*
G75*
G01*
X2167693Y2520425D02*
G03*
X2173693Y2514425I6000J0D01*
G75*
G01*
X2316307Y2585575D02*
G02*
X2322307Y2579575I0J-6000D01*
G75*
G01*
X2322307Y2520425D02*
G02*
X2316307Y2514425I-6000J0D01*
G75*
G01*
X2184988Y2639630D02*
G03*
X2178988Y2633630I0J-6000D01*
G75*
G01*
X2178988Y2606370D02*
G03*
X2184988Y2600370I6000J0D01*
G75*
G01*
X2265012Y2639630D02*
G02*
X2271012Y2633630I0J-6000D01*
G75*
G01*
X2271012Y2606370D02*
G02*
X2265012Y2600370I-6000J0D01*
G75*
G01*
X2125012Y2550370D02*
G03*
X2131012Y2556370I0J6000D01*
G75*
G01*
X2131012Y2583630D02*
G03*
X2125012Y2589630I-6000J0D01*
G75*
G01*
X2044988Y2550370D02*
G02*
X2038988Y2556370I0J6000D01*
G75*
G01*
X2038988Y2583630D02*
G02*
X2044988Y2589630I6000J0D01*
G75*
G01*
X2125012Y2505370D02*
G03*
X2131012Y2511370I0J6000D01*
G75*
G01*
X2131012Y2538630D02*
G03*
X2125012Y2544630I-6000J0D01*
G75*
G01*
X2044988Y2505370D02*
G02*
X2038988Y2511370I0J6000D01*
G75*
G01*
X2038988Y2538630D02*
G02*
X2044988Y2544630I6000J0D01*
D13*
G75*
G01
X2659210Y2641000D02*
G03X2659210Y2641000I-60210J0D01*
G75*
G01
X2698450Y2723870D02*
G03X2698450Y2723870I-18030J0D01*
G75*
G01
X2702030Y2555290D02*
G03X2702030Y2555290I-18030J0D01*
G75*
G01
X2532740Y2556710D02*
G03X2532740Y2556710I-18030J0D01*
G75*
G01
X2532940Y2723600D02*
G03X2532940Y2723600I-18030J0D01*
G75*
G01
X2254130Y2488000D02*
G03X2254130Y2488000I-7220J0D01*
M02*
