G04 Layer: TopSolderMaskLayer*
G04 EasyEDA v6.5.44, 2024-09-01 12:15:54*
G04 62699ee94d054cea995aae1e18215b50,9332716679504667801b7cb99b0421ba,10*
G04 Gerber Generator version 0.2*
G04 Scale: 100 percent, Rotated: No, Reflected: No *
G04 Dimensions in inches *
G04 leading zeros omitted , absolute positions ,3 integer and 6 decimal *
%FSLAX36Y36*%
%MOIN*%

%AMMACRO1*4,1,8,-0.0343,-0.0355,-0.0355,-0.0343,-0.0355,0.0343,-0.0343,0.0355,0.0343,0.0355,0.0355,0.0343,0.0355,-0.0343,0.0343,-0.0355,-0.0343,-0.0355,0*%
%AMMACRO2*4,1,8,-0.0318,-0.0355,-0.033,-0.0343,-0.033,0.0343,-0.0318,0.0355,0.0318,0.0355,0.033,0.0343,0.033,-0.0343,0.0318,-0.0355,-0.0318,-0.0355,0*%
%AMMACRO3*4,1,8,-0.0363,-0.0374,-0.0374,-0.0362,-0.0374,0.0363,-0.0363,0.0374,0.0362,0.0374,0.0374,0.0363,0.0374,-0.0362,0.0362,-0.0374,-0.0363,-0.0374,0*%
%AMMACRO4*4,1,8,-0.0304,-0.0256,-0.0315,-0.0244,-0.0315,0.0244,-0.0304,0.0256,0.0303,0.0256,0.0315,0.0244,0.0315,-0.0244,0.0303,-0.0256,-0.0304,-0.0256,0*%
%AMMACRO5*4,1,8,-0.0244,-0.0315,-0.0256,-0.0303,-0.0256,0.0304,-0.0244,0.0315,0.0244,0.0315,0.0256,0.0304,0.0256,-0.0303,0.0244,-0.0315,-0.0244,-0.0315,0*%
%AMMACRO6*4,1,8,-0.0441,-0.0709,-0.0453,-0.0697,-0.0453,0.0697,-0.0441,0.0709,0.0441,0.0709,0.0453,0.0697,0.0453,-0.0697,0.0441,-0.0709,-0.0441,-0.0709,0*%
%AMMACRO7*4,1,8,-0.0441,-0.0237,-0.0453,-0.0225,-0.0453,0.0225,-0.0441,0.0237,0.0441,0.0237,0.0453,0.0225,0.0453,-0.0225,0.0441,-0.0237,-0.0441,-0.0237,0*%
%AMMACRO8*4,1,8,-0.0441,-0.0236,-0.0453,-0.0225,-0.0453,0.0225,-0.0441,0.0236,0.0441,0.0236,0.0453,0.0225,0.0453,-0.0225,0.0441,-0.0236,-0.0441,-0.0236,0*%
%AMMACRO9*4,1,8,-0.0495,-0.0213,-0.0506,-0.0201,-0.0506,0.0201,-0.0495,0.0213,0.0494,0.0213,0.0506,0.0201,0.0506,-0.0201,0.0494,-0.0213,-0.0495,-0.0213,0*%
%AMMACRO10*4,1,8,-0.0495,-0.0729,-0.0506,-0.0717,-0.0506,0.0717,-0.0495,0.0729,0.0494,0.0729,0.0506,0.0717,0.0506,-0.0717,0.0494,-0.0729,-0.0495,-0.0729,0*%
%AMMACRO11*4,1,8,-0.0286,-0.0286,-0.0298,-0.0274,-0.0298,0.0274,-0.0286,0.0286,0.0286,0.0286,0.0298,0.0274,0.0298,-0.0274,0.0286,-0.0286,-0.0286,-0.0286,0*%
%AMMACRO12*4,1,8,-0.0164,-0.0126,-0.0176,-0.0114,-0.0176,0.0115,-0.0164,0.0126,0.0164,0.0126,0.0176,0.0115,0.0176,-0.0114,0.0164,-0.0126,-0.0164,-0.0126,0*%
%AMMACRO13*4,1,8,-0.0284,-0.0217,-0.0296,-0.0205,-0.0296,0.0205,-0.0284,0.0217,0.0284,0.0217,0.0296,0.0205,0.0296,-0.0205,0.0284,-0.0217,-0.0284,-0.0217,0*%
%AMMACRO14*4,1,8,-0.0205,-0.0295,-0.0217,-0.0284,-0.0217,0.0284,-0.0205,0.0295,0.0205,0.0295,0.0217,0.0284,0.0217,-0.0284,0.0205,-0.0295,-0.0205,-0.0295,0*%
%AMMACRO15*4,1,8,-0.012,-0.0126,-0.0131,-0.0115,-0.0131,0.0115,-0.012,0.0126,0.012,0.0126,0.0131,0.0115,0.0131,-0.0115,0.012,-0.0126,-0.012,-0.0126,0*%
%AMMACRO16*4,1,8,-0.0115,-0.0131,-0.0126,-0.012,-0.0126,0.012,-0.0115,0.0131,0.0115,0.0131,0.0126,0.012,0.0126,-0.012,0.0115,-0.0131,-0.0115,-0.0131,0*%
%AMMACRO17*4,1,8,-0.0115,-0.0131,-0.0126,-0.0119,-0.0126,0.012,-0.0115,0.0131,0.0115,0.0131,0.0126,0.012,0.0126,-0.0119,0.0115,-0.0131,-0.0115,-0.0131,0*%
%AMMACRO18*4,1,8,-0.012,-0.0126,-0.0131,-0.0114,-0.0131,0.0115,-0.012,0.0126,0.012,0.0126,0.0131,0.0115,0.0131,-0.0114,0.012,-0.0126,-0.012,-0.0126,0*%
%AMMACRO19*4,1,8,-0.0382,-0.0276,-0.0394,-0.0264,-0.0394,0.0264,-0.0382,0.0276,0.0382,0.0276,0.0394,0.0264,0.0394,-0.0264,0.0382,-0.0276,-0.0382,-0.0276,0*%
%AMMACRO20*4,1,8,-0.0185,-0.0315,-0.0197,-0.0303,-0.0197,0.0303,-0.0185,0.0315,0.0185,0.0315,0.0197,0.0303,0.0197,-0.0303,0.0185,-0.0315,-0.0185,-0.0315,0*%
%AMMACRO21*4,1,8,-0.0304,-0.0197,-0.0315,-0.0185,-0.0315,0.0185,-0.0304,0.0197,0.0303,0.0197,0.0315,0.0185,0.0315,-0.0185,0.0303,-0.0197,-0.0304,-0.0197,0*%
%AMMACRO22*4,1,8,-0.0303,-0.0197,-0.0315,-0.0185,-0.0315,0.0185,-0.0303,0.0197,0.0303,0.0197,0.0315,0.0185,0.0315,-0.0185,0.0303,-0.0197,-0.0303,-0.0197,0*%
%AMMACRO23*4,1,8,-0.0185,-0.0197,-0.0197,-0.0185,-0.0197,0.0185,-0.0185,0.0197,0.0185,0.0197,0.0197,0.0185,0.0197,-0.0185,0.0185,-0.0197,-0.0185,-0.0197,0*%
%AMMACRO24*4,1,8,-0.0323,-0.0335,-0.0335,-0.0323,-0.0335,0.0323,-0.0323,0.0335,0.0323,0.0335,0.0335,0.0323,0.0335,-0.0323,0.0323,-0.0335,-0.0323,-0.0335,0*%
%ADD10MACRO1*%
%ADD11C,0.0709*%
%ADD12MACRO2*%
%ADD13MACRO3*%
%ADD14C,0.0749*%
%ADD15MACRO4*%
%ADD16MACRO5*%
%ADD17MACRO6*%
%ADD18MACRO7*%
%ADD19MACRO8*%
%ADD20MACRO9*%
%ADD21MACRO10*%
%ADD22MACRO11*%
%ADD23MACRO12*%
%ADD24MACRO13*%
%ADD25MACRO14*%
%ADD26MACRO15*%
%ADD27MACRO16*%
%ADD28MACRO17*%
%ADD29MACRO18*%
%ADD30MACRO19*%
%ADD31MACRO20*%
%ADD32MACRO21*%
%ADD33MACRO22*%
%ADD34MACRO23*%
%ADD35MACRO24*%
%ADD36C,0.0670*%

%LPD*%
D10*
G01*
X2497334Y2265664D03*
D11*
G01*
X2497330Y2165670D03*
G01*
X2497330Y2065670D03*
G01*
X2497330Y1965670D03*
G01*
X1225000Y2550000D03*
G01*
X1325000Y2550000D03*
G01*
X1425000Y2550000D03*
G01*
X1525000Y2550000D03*
G01*
X1625000Y2550000D03*
G01*
X1725000Y2550000D03*
G01*
X1825000Y2550000D03*
D12*
G01*
X1925000Y2549994D03*
D13*
G01*
X1925000Y1515000D03*
D14*
G01*
X1825000Y1515000D03*
G01*
X1725000Y1515000D03*
G01*
X1625000Y1515000D03*
G01*
X1525000Y1515000D03*
G01*
X1425000Y1515000D03*
G01*
X1325000Y1515000D03*
G01*
X1225000Y1515000D03*
D11*
G01*
X1225000Y1650000D03*
G01*
X1325000Y1650000D03*
G01*
X1425000Y1650000D03*
G01*
X1525000Y1650000D03*
G01*
X1625000Y1650000D03*
G01*
X1725000Y1650000D03*
G01*
X1825000Y1650000D03*
D12*
G01*
X1925000Y1649994D03*
D10*
G01*
X2370004Y2394994D03*
D11*
G01*
X2370000Y2295000D03*
G01*
X2370000Y2195000D03*
G01*
X2370000Y2095000D03*
G01*
X2370000Y1995000D03*
G01*
X2370000Y1895000D03*
D15*
G01*
X2585000Y1717239D03*
G01*
X2585000Y1622760D03*
D16*
G01*
X2577240Y2455000D03*
G01*
X2482759Y2455000D03*
D17*
G01*
X2583000Y1840000D03*
D18*
G01*
X2826999Y1930550D03*
D19*
G01*
X2826999Y1840000D03*
D18*
G01*
X2826999Y1749445D03*
D20*
G01*
X2811615Y2244449D03*
G01*
X2811615Y2335000D03*
G01*
X2811615Y2425550D03*
D21*
G01*
X2588384Y2335000D03*
D22*
G01*
X2205630Y2549994D03*
G01*
X2284375Y2549994D03*
D23*
G01*
X2203540Y2620000D03*
G01*
X2246459Y2620000D03*
G01*
X2106459Y2570000D03*
G01*
X2063540Y2570000D03*
D10*
G01*
X1275000Y1974994D03*
D11*
G01*
X1275000Y2075000D03*
G01*
X1275000Y2175000D03*
G01*
X1275000Y2275000D03*
D10*
G01*
X2055004Y1514994D03*
D11*
G01*
X2155000Y1515000D03*
G01*
X2255000Y1515000D03*
G01*
X2355000Y1515000D03*
D13*
G01*
X1925000Y2720000D03*
D14*
G01*
X1825000Y2720000D03*
G01*
X1725000Y2720000D03*
G01*
X1625000Y2720000D03*
G01*
X1525000Y2720000D03*
G01*
X1425000Y2720000D03*
G01*
X1325000Y2720000D03*
G01*
X1225000Y2720000D03*
D24*
G01*
X2362570Y1763925D03*
G01*
X2362570Y1681225D03*
D25*
G01*
X2770495Y2652370D03*
G01*
X2853195Y2652370D03*
D26*
G01*
X2488045Y1653070D03*
G01*
X2453964Y1653070D03*
D27*
G01*
X2920000Y2587954D03*
D28*
G01*
X2920000Y2622039D03*
D29*
G01*
X2148505Y2621430D03*
G01*
X2114425Y2621430D03*
D30*
G01*
X2433645Y2729580D03*
G01*
X2764355Y2729580D03*
G01*
X2433645Y2552420D03*
G01*
X2764355Y2552420D03*
D31*
G01*
X2205195Y2444490D03*
G01*
X2155195Y2444490D03*
G01*
X2105195Y2444490D03*
G01*
X2055195Y2444490D03*
G01*
X2005195Y2444490D03*
G01*
X1955195Y2444490D03*
G01*
X1905195Y2444490D03*
G01*
X1855195Y2444490D03*
G01*
X1805195Y2444490D03*
G01*
X1755195Y2444490D03*
G01*
X1705195Y2444490D03*
G01*
X1655195Y2444490D03*
G01*
X1605195Y2444490D03*
G01*
X1555195Y2444490D03*
D32*
G01*
X1504800Y2375000D03*
G01*
X1504800Y2325000D03*
G01*
X1504800Y2275000D03*
G01*
X1504800Y2225000D03*
G01*
X1504800Y2175000D03*
G01*
X1504800Y2125000D03*
G01*
X1504800Y2075000D03*
G01*
X1504800Y2025000D03*
G01*
X1504800Y1975000D03*
G01*
X1504800Y1925000D03*
G01*
X1504800Y1875000D03*
D33*
G01*
X1505984Y1825000D03*
D31*
G01*
X1555195Y1755509D03*
G01*
X1605195Y1755509D03*
G01*
X1655195Y1755509D03*
G01*
X1705195Y1755509D03*
G01*
X1755195Y1755509D03*
G01*
X1805195Y1755509D03*
G01*
X1855195Y1755509D03*
G01*
X1905195Y1755509D03*
G01*
X1955195Y1755509D03*
G01*
X2005195Y1755509D03*
G01*
X2055195Y1755509D03*
G01*
X2105195Y1755509D03*
G01*
X2155195Y1755509D03*
G01*
X2205195Y1755509D03*
D34*
G01*
X1901255Y2159060D03*
G01*
X1901255Y2214175D03*
G01*
X1901255Y2103940D03*
G01*
X1956375Y2103940D03*
G01*
X1956375Y2159060D03*
G01*
X1956375Y2214175D03*
G01*
X1846134Y2214175D03*
G01*
X1846134Y2159060D03*
G01*
X1846134Y2103940D03*
D35*
G01*
X2840000Y2085000D03*
D36*
G01*
X2840000Y2185000D03*
D23*
G01*
X2106459Y2525000D03*
G01*
X2063540Y2525000D03*
M02*
