G04 Layer: BottomLayer*
G04 EasyEDA v6.5.44, 2024-09-01 12:15:54*
G04 62699ee94d054cea995aae1e18215b50,9332716679504667801b7cb99b0421ba,10*
G04 Gerber Generator version 0.2*
G04 Scale: 100 percent, Rotated: No, Reflected: No *
G04 Dimensions in inches *
G04 leading zeros omitted , absolute positions ,3 integer and 6 decimal *
%FSLAX36Y36*%
%MOIN*%

%AMMACRO1*21,1,$1,$2,0,0,$3*%
%ADD10C,0.0250*%
%ADD11C,0.0100*%
%ADD12C,0.0200*%
%ADD13MACRO1,0.0472X0.0591X0.0000*%
%ADD14MACRO1,0.0669X0.0669X-90.0000*%
%ADD15C,0.0669*%
%ADD16MACRO1,0.062X0.0669X0.0000*%
%ADD17MACRO1,0.0709X0.0709X0.0000*%
%ADD18C,0.0709*%
%ADD19R,0.0669X0.0669*%
%ADD20R,0.0709X0.0709*%
%ADD21R,0.0630X0.0630*%
%ADD22C,0.0630*%
%ADD23C,0.0157*%
%ADD24C,0.0244*%
%ADD25C,0.0128*%

%LPD*%
G36*
X2447660Y2219220D02*
G01*
X2446140Y2219520D01*
X2444840Y2220380D01*
X2443960Y2221680D01*
X2443660Y2223220D01*
X2443660Y2304820D01*
X2443480Y2305440D01*
X2440540Y2309120D01*
X2439880Y2310300D01*
X2439660Y2311620D01*
X2439660Y2316560D01*
X2439960Y2318100D01*
X2440820Y2319380D01*
X2620500Y2500040D01*
X2621800Y2500900D01*
X2623320Y2501220D01*
X2672000Y2501220D01*
X2673540Y2500920D01*
X2674840Y2500040D01*
X2683500Y2491380D01*
X2684360Y2490080D01*
X2684660Y2488560D01*
X2684660Y2452600D01*
X2684740Y2452200D01*
X2686040Y2450140D01*
X2686500Y2449120D01*
X2686660Y2448000D01*
X2686660Y2365240D01*
X2686540Y2364240D01*
X2686160Y2363320D01*
X2665120Y2325220D01*
X2664940Y2324740D01*
X2655100Y2285420D01*
X2654800Y2284600D01*
X2640680Y2256360D01*
X2639820Y2255200D01*
X2638600Y2254440D01*
X2564380Y2224500D01*
X2562880Y2224220D01*
X2535060Y2224220D01*
X2534380Y2223940D01*
X2530840Y2220380D01*
X2529540Y2219520D01*
X2528000Y2219220D01*
G37*

%LPD*%
G36*
X2746660Y1870000D02*
G01*
X2745120Y1870300D01*
X2743820Y1871180D01*
X2726180Y1888820D01*
X2725299Y1890120D01*
X2725000Y1891660D01*
X2725000Y2458340D01*
X2725299Y2459880D01*
X2726180Y2461180D01*
X2728820Y2463820D01*
X2730120Y2464700D01*
X2731660Y2465000D01*
X2938340Y2465000D01*
X2939880Y2464700D01*
X2941180Y2463820D01*
X2973820Y2431180D01*
X2974700Y2429880D01*
X2975000Y2428340D01*
X2975000Y1921660D01*
X2974700Y1920120D01*
X2973820Y1918820D01*
X2926180Y1871180D01*
X2924880Y1870300D01*
X2923340Y1870000D01*
G37*

%LPC*%
G36*
X2808720Y2043300D02*
G01*
X2821760Y2043300D01*
X2821760Y2066759D01*
X2798300Y2066759D01*
X2798300Y2053720D01*
X2798580Y2051240D01*
X2799340Y2049079D01*
X2800539Y2047160D01*
X2802160Y2045540D01*
X2804080Y2044340D01*
X2806240Y2043580D01*
G37*
G36*
X2858240Y2043300D02*
G01*
X2871280Y2043300D01*
X2873759Y2043580D01*
X2875920Y2044340D01*
X2877840Y2045540D01*
X2879460Y2047160D01*
X2880659Y2049079D01*
X2881420Y2051240D01*
X2881700Y2053720D01*
X2881700Y2066759D01*
X2858240Y2066759D01*
G37*
G36*
X2798300Y2103240D02*
G01*
X2821760Y2103240D01*
X2821760Y2126700D01*
X2808720Y2126700D01*
X2806240Y2126420D01*
X2804080Y2125660D01*
X2802160Y2124460D01*
X2800539Y2122840D01*
X2799340Y2120920D01*
X2798580Y2118760D01*
X2798300Y2116280D01*
G37*
G36*
X2858240Y2103240D02*
G01*
X2881700Y2103240D01*
X2881700Y2116280D01*
X2881420Y2118760D01*
X2880659Y2120920D01*
X2879460Y2122840D01*
X2877840Y2124460D01*
X2875920Y2125660D01*
X2873759Y2126420D01*
X2871280Y2126700D01*
X2858240Y2126700D01*
G37*
G36*
X2840000Y2143320D02*
G01*
X2845440Y2143660D01*
X2850779Y2144740D01*
X2855960Y2146480D01*
X2860840Y2148900D01*
X2865380Y2151920D01*
X2869480Y2155520D01*
X2873080Y2159620D01*
X2876100Y2164160D01*
X2878519Y2169040D01*
X2880260Y2174220D01*
X2881340Y2179560D01*
X2881680Y2185000D01*
X2881340Y2190440D01*
X2880260Y2195780D01*
X2878519Y2200960D01*
X2876100Y2205840D01*
X2873080Y2210380D01*
X2869480Y2214480D01*
X2865380Y2218080D01*
X2860840Y2221100D01*
X2855960Y2223520D01*
X2850779Y2225260D01*
X2845440Y2226340D01*
X2840000Y2226680D01*
X2834560Y2226340D01*
X2829220Y2225260D01*
X2824040Y2223520D01*
X2819160Y2221100D01*
X2814620Y2218080D01*
X2810520Y2214480D01*
X2806920Y2210380D01*
X2803900Y2205840D01*
X2801480Y2200960D01*
X2799740Y2195780D01*
X2798660Y2190440D01*
X2798320Y2185000D01*
X2798660Y2179560D01*
X2799740Y2174220D01*
X2801480Y2169040D01*
X2803900Y2164160D01*
X2806920Y2159620D01*
X2810520Y2155520D01*
X2814620Y2151920D01*
X2819160Y2148900D01*
X2824040Y2146480D01*
X2829220Y2144740D01*
X2834560Y2143660D01*
G37*

%LPD*%
G36*
X1892060Y1461699D02*
G01*
X1890540Y1462020D01*
X1889240Y1462880D01*
X1883580Y1468540D01*
X1882700Y1469840D01*
X1882400Y1471360D01*
X1882400Y1684820D01*
X1882700Y1686320D01*
X1883540Y1687600D01*
X1884800Y1688480D01*
X1886300Y1688820D01*
X1957680Y1690660D01*
X1959280Y1690380D01*
X1960620Y1689500D01*
X1989120Y1660980D01*
X1989800Y1660700D01*
X1993740Y1660700D01*
X1995280Y1660400D01*
X1996579Y1659540D01*
X1998440Y1657780D01*
X1998800Y1657700D01*
X2124020Y1657700D01*
X2124680Y1657980D01*
X2135100Y1668400D01*
X2136540Y1669340D01*
X2138240Y1669560D01*
X2148940Y1668740D01*
X2149680Y1668980D01*
X2156180Y1675480D01*
X2157260Y1676260D01*
X2158540Y1676639D01*
X2160280Y1676480D01*
X2164080Y1676320D01*
X2167840Y1676800D01*
X2171460Y1677920D01*
X2173080Y1678600D01*
X2174000Y1678700D01*
X2231020Y1678700D01*
X2231680Y1678980D01*
X2260240Y1707540D01*
X2261540Y1708400D01*
X2263060Y1708700D01*
X2286020Y1708700D01*
X2286680Y1708980D01*
X2360240Y1782540D01*
X2361540Y1783400D01*
X2363060Y1783700D01*
X2381020Y1783700D01*
X2381680Y1783980D01*
X2435120Y1837440D01*
X2435400Y1838100D01*
X2435400Y1881060D01*
X2435700Y1882580D01*
X2436580Y1883880D01*
X2461240Y1908540D01*
X2462540Y1909400D01*
X2464060Y1909700D01*
X2466740Y1909700D01*
X2468280Y1909400D01*
X2469580Y1908540D01*
X2474120Y1903980D01*
X2474800Y1903700D01*
X2568740Y1903700D01*
X2570280Y1903400D01*
X2571580Y1902540D01*
X2622240Y1851879D01*
X2623100Y1850580D01*
X2623399Y1849060D01*
X2623399Y1834100D01*
X2623680Y1833440D01*
X2629240Y1827880D01*
X2630100Y1826579D01*
X2630400Y1825060D01*
X2630400Y1732360D01*
X2630100Y1730840D01*
X2629240Y1729540D01*
X2620580Y1720880D01*
X2619280Y1720020D01*
X2617740Y1719700D01*
X2555800Y1719700D01*
X2555120Y1719440D01*
X2526580Y1690880D01*
X2525280Y1690020D01*
X2523740Y1689700D01*
X2433800Y1689700D01*
X2433120Y1689440D01*
X2320580Y1576879D01*
X2319280Y1576020D01*
X2317740Y1575700D01*
X1995800Y1575700D01*
X1995120Y1575440D01*
X1992680Y1572980D01*
X1992400Y1572320D01*
X1992400Y1475360D01*
X1992100Y1473839D01*
X1991240Y1472540D01*
X1981579Y1462880D01*
X1980280Y1462020D01*
X1978740Y1461699D01*
G37*

%LPD*%
D10*
X2203721Y1812593D02*
G01*
X2018721Y1997593D01*
X2018721Y2120594D01*
X2018721Y2120594D02*
G01*
X2018721Y2149594D01*
D11*
X1654674Y2391718D02*
G01*
X1654674Y2373719D01*
X1728674Y2299719D01*
X1943674Y2299719D01*
X2247673Y1995718D01*
X2365673Y1995718D01*
X1704817Y2389434D02*
G01*
X1747674Y2346576D01*
X2061959Y2346576D01*
X2114817Y2293719D01*
X2364817Y2293719D01*
X2366959Y2295862D01*
X1751959Y2393004D02*
G01*
X2078388Y2393004D01*
X2128388Y2343004D01*
X2274817Y2343004D01*
X2324817Y2393004D01*
X2364817Y2393004D01*
X2371959Y2400147D01*
D12*
X2078800Y2754699D02*
G01*
X2378800Y2754699D01*
X2580799Y2552700D01*
X2621800Y2552700D01*
X2063805Y2613672D02*
G01*
X2341805Y2613672D01*
X2363805Y2591673D01*
X1923948Y2713292D02*
G01*
X1923948Y2554292D01*
X1926999Y2543292D01*
X1819948Y2720291D02*
G01*
X1819948Y2552292D01*
X1823948Y2548292D01*
X1722947Y2718292D02*
G01*
X1722947Y2548292D01*
X1626948Y2725291D02*
G01*
X1626948Y2549292D01*
X1623948Y2546291D01*
X1524948Y2719292D02*
G01*
X1524948Y2551291D01*
X1525947Y2550291D01*
X1422947Y2720291D02*
G01*
X1422947Y2548292D01*
X1321948Y2722292D02*
G01*
X1321948Y2552292D01*
X1325947Y2548292D01*
X1227789Y2548921D02*
G01*
X1227789Y2714450D01*
X1222947Y2719292D01*
D11*
X2491530Y1612590D02*
G01*
X2491530Y1615142D01*
X2580600Y1615142D01*
X2679492Y1714032D01*
X2679492Y1847366D01*
X2612826Y1914032D01*
X2612826Y2247865D01*
X2548662Y2312031D01*
D12*
X1824903Y1648645D02*
G01*
X1824903Y1759358D01*
X1857047Y1791502D01*
X1857047Y1842930D01*
X1908476Y1894358D01*
X2117761Y1894358D01*
X2204189Y1807930D01*
D10*
X2154331Y2377217D02*
G01*
X2238329Y2461215D01*
X2506328Y2461215D01*
X2548660Y2418883D01*
X2548660Y2312220D01*
D11*
X1923437Y1820059D02*
G01*
X2041751Y1820059D01*
X2163119Y1698690D01*
X2018888Y1689780D02*
G01*
X2090888Y1689780D01*
X2095888Y1684780D01*
X1500000Y1715000D02*
G01*
X1550000Y1765000D01*
X1725000Y1765000D01*
X1765000Y1805000D01*
X1805000Y1805000D01*
X1425001Y1720000D02*
G01*
X1505001Y1800000D01*
X1655195Y1800000D01*
X2602200Y2450900D02*
G01*
X2651300Y2500000D01*
X2865000Y2500000D01*
X2910000Y2545000D01*
D10*
X2811611Y2400000D02*
G01*
X2840000Y2400000D01*
X2850000Y2390000D01*
X2850000Y2385000D01*
X2657759Y1965000D02*
G01*
X2657759Y2035000D01*
X2657759Y2124733D02*
G01*
X2657759Y2160000D01*
X2657759Y2035000D02*
G01*
X2657759Y2124733D01*
D13*
G01*
X2752239Y2035000D03*
G01*
X2657760Y2035000D03*
G01*
X2752239Y1965000D03*
G01*
X2657760Y1965000D03*
D14*
G01*
X2497333Y2265666D03*
D15*
G01*
X2497330Y2165670D03*
G01*
X2497330Y2065670D03*
G01*
X2497330Y1965670D03*
G01*
X1225000Y2550000D03*
G01*
X1325000Y2550000D03*
G01*
X1425000Y2550000D03*
G01*
X1525000Y2550000D03*
G01*
X1625000Y2550000D03*
G01*
X1725000Y2550000D03*
G01*
X1825000Y2550000D03*
D16*
G01*
X1925000Y2550000D03*
D17*
G01*
X1925000Y1515000D03*
D18*
G01*
X1825000Y1515000D03*
G01*
X1725000Y1515000D03*
G01*
X1625000Y1515000D03*
G01*
X1525000Y1515000D03*
G01*
X1425000Y1515000D03*
G01*
X1325000Y1515000D03*
G01*
X1225000Y1515000D03*
D15*
G01*
X1225000Y1650000D03*
G01*
X1325000Y1650000D03*
G01*
X1425000Y1650000D03*
G01*
X1525000Y1650000D03*
G01*
X1625000Y1650000D03*
G01*
X1725000Y1650000D03*
G01*
X1825000Y1650000D03*
D16*
G01*
X1925000Y1650000D03*
D14*
G01*
X2370000Y2395000D03*
D15*
G01*
X2370000Y2295000D03*
G01*
X2370000Y2195000D03*
G01*
X2370000Y2095000D03*
G01*
X2370000Y1995000D03*
G01*
X2370000Y1895000D03*
D19*
G01*
X1275000Y1975000D03*
D15*
G01*
X1275000Y2075000D03*
G01*
X1275000Y2175000D03*
G01*
X1275000Y2275000D03*
D19*
G01*
X2055000Y1515000D03*
D15*
G01*
X2155000Y1515000D03*
G01*
X2255000Y1515000D03*
G01*
X2355000Y1515000D03*
D20*
G01*
X1925000Y2720000D03*
D18*
G01*
X1825000Y2720000D03*
G01*
X1725000Y2720000D03*
G01*
X1625000Y2720000D03*
G01*
X1525000Y2720000D03*
G01*
X1425000Y2720000D03*
G01*
X1325000Y2720000D03*
G01*
X1225000Y2720000D03*
D21*
G01*
X2840000Y2085000D03*
D22*
G01*
X2840000Y2185000D03*
D23*
G01*
X1928819Y2159070D03*
G01*
X1873699Y2159070D03*
G01*
X1873699Y2103950D03*
G01*
X1928819Y2103950D03*
G01*
X1956379Y2131509D03*
G01*
X1901260Y2131509D03*
G01*
X1846139Y2131509D03*
G01*
X1873699Y2214189D03*
G01*
X1928819Y2214189D03*
G01*
X1956379Y2186630D03*
G01*
X1901260Y2186630D03*
G01*
X1846139Y2186630D03*
D24*
G01*
X1425000Y1720000D03*
G01*
X1655200Y1800000D03*
G01*
X1500000Y1715000D03*
G01*
X1805000Y1805000D03*
G01*
X1755200Y2395000D03*
G01*
X1705200Y2390000D03*
G01*
X1920000Y1820000D03*
G01*
X2502920Y1850210D03*
G01*
X2502920Y1884209D03*
G01*
X2151660Y2379879D03*
G01*
X2094600Y1688130D03*
G01*
X2163119Y1698690D03*
G01*
X2018890Y1689780D03*
G01*
X2430259Y1716999D03*
G01*
X2459690Y1730999D03*
G01*
X2491830Y1742849D03*
G01*
X2063800Y2611799D03*
G01*
X2344660Y2545799D03*
G01*
X2366090Y2587229D03*
G01*
X2205609Y1810410D03*
G01*
X2491530Y1612590D03*
G01*
X2563400Y1506990D03*
G01*
X2611970Y1505569D03*
G01*
X2589809Y2557669D03*
G01*
X2621809Y2552669D03*
G01*
X2077809Y2753670D03*
G01*
X2910000Y2545000D03*
G01*
X1653100Y2392669D03*
G01*
X2018720Y2149589D03*
G01*
X2018720Y2120590D03*
G01*
X2015720Y2088589D03*
G01*
X2020720Y2040590D03*
G01*
X1672749Y2642060D03*
G01*
X2655000Y2405000D03*
G01*
X2674290Y2385709D03*
G01*
X2811610Y2400000D03*
G01*
X2850000Y2385000D03*
G01*
X2825000Y2005000D03*
G01*
X2826999Y1969870D03*
G01*
X2750000Y2395000D03*
G01*
X2490000Y2315000D03*
G01*
X2515000Y2335000D03*
G01*
X2655000Y2445000D03*
G01*
X2657759Y2160000D03*
G01*
X2657759Y2124729D03*
M02*
