G04 Layer: TopPasteMaskLayer*
G04 EasyEDA v6.5.44, 2024-09-01 12:15:54*
G04 62699ee94d054cea995aae1e18215b50,9332716679504667801b7cb99b0421ba,10*
G04 Gerber Generator version 0.2*
G04 Scale: 100 percent, Rotated: No, Reflected: No *
G04 Dimensions in inches *
G04 leading zeros omitted , absolute positions ,3 integer and 6 decimal *
%FSLAX36Y36*%
%MOIN*%

%AMMACRO1*21,1,$1,$2,0,0,$3*%
%ADD10R,0.0591X0.0472*%
%ADD11R,0.0472X0.0591*%
%ADD12R,0.0866X0.1378*%
%ADD13R,0.0866X0.0433*%
%ADD14MACRO1,0.0386X0.0973X90.0000*%
%ADD15MACRO1,0.1417X0.0973X-90.0000*%
%ADD16MACRO1,0.0394X0.0551X-90.0000*%
%ADD17R,0.0551X0.0394*%
%ADD18MACRO1,0.0394X0.0551X0.0000*%
%ADD19R,0.0394X0.0551*%
%ADD20R,0.0748X0.0512*%
%ADD21R,0.0354X0.0591*%
%ADD22R,0.0591X0.0354*%
%ADD23R,0.0354X0.0354*%

%LPD*%
G36*
X2263700Y2576380D02*
G01*
X2261740Y2574400D01*
X2261920Y2557880D01*
X2279260Y2557880D01*
X2279260Y2540160D01*
X2261540Y2540160D01*
X2261740Y2524020D01*
X2263700Y2522040D01*
X2308980Y2522040D01*
X2310940Y2524020D01*
X2310940Y2574400D01*
X2308980Y2576380D01*
G37*
G36*
X2179060Y2576380D02*
G01*
X2177080Y2574400D01*
X2177080Y2524020D01*
X2179060Y2522040D01*
X2224340Y2522040D01*
X2226300Y2524020D01*
X2226100Y2540160D01*
X2208780Y2540160D01*
X2208780Y2557880D01*
X2226300Y2557880D01*
X2226300Y2574400D01*
X2224340Y2576380D01*
G37*
G36*
X2234840Y2630820D02*
G01*
X2232080Y2628860D01*
X2232080Y2611139D01*
X2234840Y2609180D01*
X2253740Y2609180D01*
X2255700Y2611139D01*
X2255700Y2628860D01*
X2253740Y2630820D01*
G37*
G36*
X2196260Y2630820D02*
G01*
X2194300Y2628860D01*
X2194300Y2611139D01*
X2196260Y2609180D01*
X2215160Y2609180D01*
X2217920Y2611139D01*
X2217920Y2628860D01*
X2215160Y2630820D01*
G37*
G36*
X2056260Y2580820D02*
G01*
X2054300Y2578860D01*
X2054300Y2561139D01*
X2056260Y2559180D01*
X2075160Y2559180D01*
X2077920Y2561139D01*
X2077920Y2578860D01*
X2075160Y2580820D01*
G37*
G36*
X2094840Y2580820D02*
G01*
X2092080Y2578860D01*
X2092080Y2561139D01*
X2094840Y2559180D01*
X2113740Y2559180D01*
X2115700Y2561139D01*
X2115700Y2578860D01*
X2113740Y2580820D01*
G37*
G36*
X2477900Y1663700D02*
G01*
X2476320Y1662120D01*
X2476320Y1644019D01*
X2477900Y1642440D01*
X2497600Y1642440D01*
X2499180Y1644019D01*
X2499180Y1662120D01*
X2497600Y1663700D01*
G37*
G36*
X2444400Y1663700D02*
G01*
X2442820Y1662120D01*
X2442820Y1644019D01*
X2444400Y1642440D01*
X2464120Y1642440D01*
X2465680Y1644019D01*
X2465680Y1662120D01*
X2464120Y1663700D01*
G37*
G36*
X2910940Y2599680D02*
G01*
X2909360Y2598120D01*
X2909360Y2578399D01*
X2910940Y2576820D01*
X2929060Y2576820D01*
X2930640Y2578399D01*
X2930640Y2598120D01*
X2929060Y2599680D01*
G37*
G36*
X2910940Y2633180D02*
G01*
X2909360Y2631600D01*
X2909360Y2611880D01*
X2910940Y2610320D01*
X2929060Y2610320D01*
X2930640Y2611880D01*
X2930640Y2631600D01*
X2929060Y2633180D01*
G37*
G36*
X2138360Y2632060D02*
G01*
X2136780Y2630480D01*
X2136780Y2612380D01*
X2138360Y2610800D01*
X2158060Y2610800D01*
X2159640Y2612380D01*
X2159640Y2630480D01*
X2158060Y2632060D01*
G37*
G36*
X2104860Y2632060D02*
G01*
X2103300Y2630480D01*
X2103300Y2612380D01*
X2104860Y2610800D01*
X2124580Y2610800D01*
X2126160Y2612380D01*
X2126160Y2630480D01*
X2124580Y2632060D01*
G37*
G36*
X2056260Y2535820D02*
G01*
X2054300Y2533860D01*
X2054300Y2516140D01*
X2056260Y2514180D01*
X2075160Y2514180D01*
X2077920Y2516140D01*
X2077920Y2533860D01*
X2075160Y2535820D01*
G37*
G36*
X2094840Y2535820D02*
G01*
X2092080Y2533860D01*
X2092080Y2516140D01*
X2094840Y2514180D01*
X2113740Y2514180D01*
X2115700Y2516140D01*
X2115700Y2533860D01*
X2113740Y2535820D01*
G37*
D10*
G01*
X2585000Y1717240D03*
G01*
X2585000Y1622759D03*
D11*
G01*
X2577240Y2455000D03*
G01*
X2482759Y2455000D03*
D12*
G01*
X2583000Y1840000D03*
D13*
G01*
X2826999Y1930549D03*
G01*
X2826999Y1840000D03*
G01*
X2826999Y1749450D03*
D14*
G01*
X2811615Y2244449D03*
G01*
X2811615Y2335000D03*
G01*
X2811615Y2425550D03*
D15*
G01*
X2588384Y2335000D03*
D16*
G01*
X2362570Y1763924D03*
D17*
G01*
X2362569Y1681219D03*
D18*
G01*
X2770495Y2652370D03*
D19*
G01*
X2853190Y2652370D03*
D20*
G01*
X2433649Y2729580D03*
G01*
X2764350Y2729580D03*
G01*
X2433649Y2552420D03*
G01*
X2764350Y2552420D03*
D21*
G01*
X2205200Y2444490D03*
G01*
X2155200Y2444490D03*
G01*
X2105200Y2444490D03*
G01*
X2055200Y2444490D03*
G01*
X2005200Y2444490D03*
G01*
X1955200Y2444490D03*
G01*
X1905200Y2444490D03*
G01*
X1855200Y2444490D03*
G01*
X1805200Y2444490D03*
G01*
X1755200Y2444490D03*
G01*
X1705200Y2444490D03*
G01*
X1655200Y2444490D03*
G01*
X1605200Y2444490D03*
G01*
X1555200Y2444490D03*
D22*
G01*
X1504799Y2375000D03*
G01*
X1504799Y2325000D03*
G01*
X1504799Y2275000D03*
G01*
X1504799Y2225000D03*
G01*
X1504799Y2175000D03*
G01*
X1504799Y2125000D03*
G01*
X1504799Y2075000D03*
G01*
X1504799Y2025000D03*
G01*
X1504799Y1975000D03*
G01*
X1504799Y1925000D03*
G01*
X1504799Y1875000D03*
G01*
X1505979Y1825000D03*
D21*
G01*
X1555200Y1755509D03*
G01*
X1605200Y1755509D03*
G01*
X1655200Y1755509D03*
G01*
X1705200Y1755509D03*
G01*
X1755200Y1755509D03*
G01*
X1805200Y1755509D03*
G01*
X1855200Y1755509D03*
G01*
X1905200Y1755509D03*
G01*
X1955200Y1755509D03*
G01*
X2005200Y1755509D03*
G01*
X2055200Y1755509D03*
G01*
X2105200Y1755509D03*
G01*
X2155200Y1755509D03*
G01*
X2205200Y1755509D03*
D23*
G01*
X1901250Y2159059D03*
G01*
X1901250Y2214180D03*
G01*
X1901250Y2103939D03*
G01*
X1956369Y2103939D03*
G01*
X1956369Y2159059D03*
G01*
X1956369Y2214180D03*
G01*
X1846139Y2214180D03*
G01*
X1846130Y2159059D03*
G01*
X1846139Y2103939D03*
M02*
