G04 Layer: TopLayer*
G04 EasyEDA v6.5.44, 2024-09-01 12:15:54*
G04 62699ee94d054cea995aae1e18215b50,9332716679504667801b7cb99b0421ba,10*
G04 Gerber Generator version 0.2*
G04 Scale: 100 percent, Rotated: No, Reflected: No *
G04 Dimensions in inches *
G04 leading zeros omitted , absolute positions ,3 integer and 6 decimal *
%FSLAX36Y36*%
%MOIN*%

%AMMACRO1*21,1,$1,$2,0,0,$3*%
%ADD10C,0.0394*%
%ADD11C,0.0100*%
%ADD12C,0.0250*%
%ADD13C,0.0200*%
%ADD14C,0.0150*%
%ADD15R,0.0591X0.0472*%
%ADD16R,0.0472X0.0591*%
%ADD17R,0.0866X0.1378*%
%ADD18R,0.0866X0.0433*%
%ADD19MACRO1,0.0386X0.0972X90.0000*%
%ADD20MACRO1,0.1417X0.0972X-90.0000*%
%ADD21MACRO1,0.0531X0.0555X-90.0000*%
%ADD22MACRO1,0.0213X0.0311X-90.0000*%
%ADD23MACRO1,0.0213X0.0311X90.0000*%
%ADD24MACRO1,0.0394X0.0551X-90.0000*%
%ADD25R,0.0551X0.0394*%
%ADD26MACRO1,0.0394X0.0551X0.0000*%
%ADD27R,0.0394X0.0551*%
%ADD28MACRO1,0.0213X0.0223X90.0000*%
%ADD29MACRO1,0.0213X0.0223X0.0000*%
%ADD30R,0.0213X0.0223*%
%ADD31R,0.0748X0.0512*%
%ADD32R,0.0354X0.0591*%
%ADD33R,0.0591X0.0354*%
%ADD34R,0.0354X0.0354*%
%ADD35MACRO1,0.0669X0.0669X-90.0000*%
%ADD36C,0.0669*%
%ADD37MACRO1,0.062X0.0669X0.0000*%
%ADD38MACRO1,0.0709X0.0709X0.0000*%
%ADD39C,0.0709*%
%ADD40R,0.0669X0.0669*%
%ADD41R,0.0709X0.0709*%
%ADD42R,0.0630X0.0630*%
%ADD43C,0.0630*%
%ADD44C,0.0157*%
%ADD45C,0.0244*%
%ADD46C,0.0128*%

%LPD*%
G36*
X2456580Y2021960D02*
G01*
X2454940Y2022140D01*
X2453480Y2022980D01*
X2452500Y2024319D01*
X2452160Y2025940D01*
X2452160Y2205900D01*
X2452460Y2207440D01*
X2453340Y2208740D01*
X2456040Y2211520D01*
X2454380Y2212100D01*
X2453300Y2213080D01*
X2452660Y2214380D01*
X2452520Y2215820D01*
X2452860Y2219900D01*
X2453340Y2221480D01*
X2454400Y2222740D01*
X2455900Y2223460D01*
X2457560Y2223500D01*
X2459020Y2223180D01*
X2461600Y2222280D01*
X2464100Y2222000D01*
X2530580Y2222000D01*
X2533060Y2222280D01*
X2536180Y2223440D01*
X2537200Y2223560D01*
X2668700Y2223560D01*
X2669880Y2223380D01*
X2670960Y2222860D01*
X2671840Y2222040D01*
X2673900Y2219400D01*
X2678140Y2215180D01*
X2682840Y2211480D01*
X2687960Y2208380D01*
X2693420Y2205940D01*
X2699140Y2204140D01*
X2705020Y2203080D01*
X2711000Y2202700D01*
X2716980Y2203080D01*
X2722860Y2204140D01*
X2728580Y2205940D01*
X2734040Y2208380D01*
X2739160Y2211480D01*
X2743860Y2215180D01*
X2748100Y2219400D01*
X2751780Y2224120D01*
X2754880Y2229240D01*
X2756680Y2233200D01*
X2757540Y2234440D01*
X2758540Y2235100D01*
X2757460Y2235300D01*
X2756180Y2236180D01*
X2755299Y2237460D01*
X2755000Y2239000D01*
X2755000Y2273340D01*
X2755299Y2274880D01*
X2756180Y2276180D01*
X2758820Y2278820D01*
X2760120Y2279700D01*
X2761660Y2280000D01*
X2849600Y2280000D01*
X2850280Y2280280D01*
X2878820Y2308820D01*
X2880120Y2309700D01*
X2881660Y2310000D01*
X2889600Y2310000D01*
X2890000Y2310400D01*
X2890000Y2454600D01*
X2889720Y2455280D01*
X2841180Y2503820D01*
X2840299Y2505120D01*
X2840000Y2506660D01*
X2840000Y2509600D01*
X2839720Y2510280D01*
X2837520Y2512480D01*
X2836800Y2511760D01*
X2835500Y2510900D01*
X2833960Y2510600D01*
X2264280Y2510600D01*
X2262740Y2510900D01*
X2261460Y2511760D01*
X2257800Y2515420D01*
X2256920Y2516720D01*
X2256620Y2518260D01*
X2256620Y2583720D01*
X2256920Y2585220D01*
X2257740Y2586500D01*
X2259000Y2587380D01*
X2260500Y2587720D01*
X2836240Y2606580D01*
X2838140Y2606740D01*
X2839500Y2606300D01*
X2840620Y2605400D01*
X2841340Y2604160D01*
X2841600Y2602740D01*
X2841160Y2563840D01*
X2889720Y2515280D01*
X2890400Y2515000D01*
X2899320Y2515000D01*
X2900400Y2514840D01*
X2901420Y2514400D01*
X2903540Y2513100D01*
X2907060Y2511680D01*
X2910779Y2510880D01*
X2914580Y2510720D01*
X2918340Y2511200D01*
X2921960Y2512320D01*
X2925360Y2514020D01*
X2926740Y2514800D01*
X2928000Y2515000D01*
X2978340Y2515000D01*
X2979880Y2514700D01*
X2981180Y2513820D01*
X2983820Y2511180D01*
X2984700Y2509880D01*
X2985000Y2508340D01*
X2985000Y2456660D01*
X2984700Y2455120D01*
X2983820Y2453820D01*
X2940280Y2410280D01*
X2940000Y2409600D01*
X2940000Y2232380D01*
X2940160Y2231560D01*
X2940160Y2142560D01*
X2939860Y2141040D01*
X2938980Y2139740D01*
X2937700Y2138860D01*
X2936160Y2138560D01*
X2857559Y2138560D01*
X2856880Y2138280D01*
X2856340Y2137740D01*
X2855040Y2136860D01*
X2853500Y2136560D01*
X2793560Y2136560D01*
X2792880Y2136280D01*
X2783340Y2126740D01*
X2782040Y2125860D01*
X2780500Y2125560D01*
X2702559Y2125560D01*
X2701880Y2125280D01*
X2680340Y2103740D01*
X2679040Y2102860D01*
X2677500Y2102560D01*
X2646560Y2102560D01*
X2645880Y2102280D01*
X2567340Y2023740D01*
X2566040Y2022860D01*
X2564500Y2022560D01*
X2458560Y2022560D01*
G37*

%LPD*%
G36*
X1845680Y2021380D02*
G01*
X1844139Y2021680D01*
X1842840Y2022540D01*
X1801180Y2064199D01*
X1800320Y2065500D01*
X1800020Y2067020D01*
X1800020Y2246720D01*
X1800320Y2248240D01*
X1801180Y2249540D01*
X1803959Y2252320D01*
X1805120Y2253140D01*
X1806500Y2253480D01*
X1924160Y2262380D01*
X2048360Y2262380D01*
X2049900Y2262060D01*
X2051180Y2261200D01*
X2053839Y2258540D01*
X2054720Y2257240D01*
X2055020Y2255720D01*
X2055020Y2029019D01*
X2054720Y2027500D01*
X2053839Y2026200D01*
X2050180Y2022540D01*
X2048899Y2021680D01*
X2047360Y2021380D01*
G37*

%LPC*%
G36*
X1828660Y2076040D02*
G01*
X1834780Y2076040D01*
X1834780Y2092600D01*
X1818220Y2092600D01*
X1818220Y2086459D01*
X1818500Y2083980D01*
X1819259Y2081819D01*
X1820480Y2079900D01*
X1822080Y2078280D01*
X1824019Y2077060D01*
X1826160Y2076320D01*
G37*
G36*
X1967740Y2076040D02*
G01*
X1973860Y2076040D01*
X1976360Y2076320D01*
X1978500Y2077060D01*
X1980440Y2078280D01*
X1982040Y2079900D01*
X1983260Y2081819D01*
X1984019Y2083980D01*
X1984300Y2086459D01*
X1984300Y2092600D01*
X1967740Y2092600D01*
G37*
G36*
X1857500Y2076040D02*
G01*
X1863640Y2076040D01*
X1866120Y2076320D01*
X1868280Y2077060D01*
X1870200Y2078280D01*
X1870860Y2078940D01*
X1872160Y2079820D01*
X1873700Y2080120D01*
X1875220Y2079820D01*
X1876519Y2078940D01*
X1877200Y2078280D01*
X1879120Y2077060D01*
X1881279Y2076320D01*
X1883760Y2076040D01*
X1889900Y2076040D01*
X1889900Y2095180D01*
X1890000Y2096120D01*
X1890460Y2097240D01*
X1891420Y2100520D01*
X1891759Y2103940D01*
X1891420Y2107360D01*
X1890840Y2109360D01*
X1890720Y2111020D01*
X1891260Y2112580D01*
X1892420Y2113800D01*
X1893959Y2114420D01*
X1895620Y2114380D01*
X1898680Y2113640D01*
X1902120Y2113480D01*
X1905520Y2113960D01*
X1906459Y2114280D01*
X1907960Y2114500D01*
X1909440Y2114140D01*
X1910660Y2113280D01*
X1911480Y2112000D01*
X1911780Y2110520D01*
X1910840Y2105660D01*
X1910840Y2102240D01*
X1911500Y2098860D01*
X1912320Y2096780D01*
X1912620Y2095280D01*
X1912620Y2076040D01*
X1918740Y2076040D01*
X1921240Y2076320D01*
X1923380Y2077060D01*
X1925320Y2078280D01*
X1925980Y2078959D01*
X1927280Y2079820D01*
X1928820Y2080120D01*
X1930340Y2079820D01*
X1931639Y2078959D01*
X1932320Y2078280D01*
X1934240Y2077060D01*
X1936399Y2076320D01*
X1938880Y2076040D01*
X1945020Y2076040D01*
X1945020Y2095180D01*
X1945140Y2096120D01*
X1945580Y2097240D01*
X1946540Y2100520D01*
X1946879Y2103940D01*
X1946540Y2107360D01*
X1945960Y2109360D01*
X1945840Y2111020D01*
X1946380Y2112580D01*
X1947540Y2113800D01*
X1949079Y2114420D01*
X1950740Y2114380D01*
X1953800Y2113640D01*
X1957240Y2113480D01*
X1960640Y2113960D01*
X1963899Y2115100D01*
X1965200Y2115320D01*
X1984300Y2115320D01*
X1984300Y2121440D01*
X1984019Y2123940D01*
X1983260Y2126080D01*
X1982040Y2128020D01*
X1981380Y2128680D01*
X1980500Y2129980D01*
X1980200Y2131520D01*
X1980500Y2133040D01*
X1981380Y2134340D01*
X1982040Y2135020D01*
X1983260Y2136940D01*
X1984019Y2139100D01*
X1984300Y2141580D01*
X1984300Y2147720D01*
X1965160Y2147720D01*
X1963860Y2147940D01*
X1960640Y2149060D01*
X1957240Y2149540D01*
X1953800Y2149380D01*
X1950740Y2148640D01*
X1949079Y2148580D01*
X1947540Y2149220D01*
X1946380Y2150420D01*
X1945840Y2152000D01*
X1945960Y2153640D01*
X1946540Y2155640D01*
X1946879Y2159060D01*
X1946540Y2162480D01*
X1945960Y2164480D01*
X1945840Y2166140D01*
X1946380Y2167700D01*
X1947540Y2168920D01*
X1949079Y2169540D01*
X1950740Y2169500D01*
X1953800Y2168760D01*
X1957240Y2168600D01*
X1960640Y2169080D01*
X1963899Y2170220D01*
X1965220Y2170440D01*
X1984300Y2170440D01*
X1984300Y2176560D01*
X1984019Y2179060D01*
X1983260Y2181200D01*
X1982040Y2183140D01*
X1981380Y2183800D01*
X1980520Y2185100D01*
X1980200Y2186640D01*
X1980520Y2188160D01*
X1981380Y2189460D01*
X1982040Y2190120D01*
X1983260Y2192060D01*
X1984019Y2194200D01*
X1984300Y2196700D01*
X1984300Y2202820D01*
X1965200Y2202820D01*
X1963880Y2203040D01*
X1960640Y2204180D01*
X1957240Y2204660D01*
X1953800Y2204500D01*
X1950740Y2203760D01*
X1949079Y2203700D01*
X1947540Y2204340D01*
X1946380Y2205540D01*
X1945840Y2207120D01*
X1945960Y2208760D01*
X1946540Y2210760D01*
X1946879Y2214180D01*
X1946540Y2217600D01*
X1945140Y2222020D01*
X1945020Y2222960D01*
X1945020Y2242100D01*
X1938880Y2242100D01*
X1936399Y2241820D01*
X1934240Y2241080D01*
X1932320Y2239860D01*
X1931639Y2239180D01*
X1930340Y2238320D01*
X1928820Y2238020D01*
X1927280Y2238320D01*
X1925980Y2239180D01*
X1925320Y2239860D01*
X1923380Y2241080D01*
X1921240Y2241820D01*
X1918740Y2242100D01*
X1912620Y2242100D01*
X1912620Y2222840D01*
X1912320Y2221360D01*
X1911500Y2219280D01*
X1910840Y2215900D01*
X1910840Y2212480D01*
X1911780Y2207620D01*
X1911480Y2206140D01*
X1910660Y2204860D01*
X1909440Y2203980D01*
X1907960Y2203620D01*
X1906459Y2203840D01*
X1905520Y2204180D01*
X1902120Y2204660D01*
X1898680Y2204500D01*
X1895620Y2203760D01*
X1893959Y2203700D01*
X1892420Y2204340D01*
X1891260Y2205540D01*
X1890720Y2207120D01*
X1890840Y2208760D01*
X1891420Y2210760D01*
X1891759Y2214180D01*
X1891420Y2217600D01*
X1890000Y2222020D01*
X1889900Y2222960D01*
X1889900Y2242100D01*
X1883760Y2242100D01*
X1881279Y2241820D01*
X1879120Y2241080D01*
X1877200Y2239860D01*
X1876519Y2239200D01*
X1875220Y2238320D01*
X1873700Y2238020D01*
X1872160Y2238320D01*
X1870860Y2239200D01*
X1870200Y2239860D01*
X1868280Y2241080D01*
X1866120Y2241820D01*
X1863640Y2242100D01*
X1857500Y2242100D01*
X1857500Y2222860D01*
X1857220Y2221380D01*
X1856380Y2219280D01*
X1855720Y2215900D01*
X1855720Y2212480D01*
X1856660Y2207620D01*
X1856360Y2206140D01*
X1855540Y2204860D01*
X1854319Y2203980D01*
X1852840Y2203620D01*
X1851339Y2203840D01*
X1850400Y2204180D01*
X1847000Y2204660D01*
X1843560Y2204500D01*
X1840220Y2203680D01*
X1839139Y2203200D01*
X1837480Y2202820D01*
X1818220Y2202820D01*
X1818220Y2196700D01*
X1818500Y2194200D01*
X1819259Y2192060D01*
X1820480Y2190120D01*
X1821140Y2189460D01*
X1822000Y2188160D01*
X1822300Y2186640D01*
X1822000Y2185100D01*
X1821140Y2183800D01*
X1820460Y2183140D01*
X1819259Y2181200D01*
X1818500Y2179060D01*
X1818220Y2176560D01*
X1818220Y2170440D01*
X1837460Y2170440D01*
X1839120Y2170080D01*
X1840220Y2169560D01*
X1843560Y2168760D01*
X1847000Y2168600D01*
X1850400Y2169080D01*
X1851339Y2169400D01*
X1852840Y2169620D01*
X1854319Y2169260D01*
X1855540Y2168400D01*
X1856360Y2167120D01*
X1856660Y2165640D01*
X1855720Y2160780D01*
X1855720Y2157360D01*
X1856660Y2152500D01*
X1856360Y2151020D01*
X1855540Y2149740D01*
X1854319Y2148860D01*
X1852840Y2148500D01*
X1851339Y2148720D01*
X1850400Y2149060D01*
X1847000Y2149540D01*
X1843560Y2149380D01*
X1840220Y2148560D01*
X1839160Y2148080D01*
X1837500Y2147720D01*
X1818220Y2147720D01*
X1818220Y2141580D01*
X1818500Y2139100D01*
X1819259Y2136940D01*
X1820460Y2135020D01*
X1821140Y2134340D01*
X1822000Y2133040D01*
X1822320Y2131520D01*
X1822000Y2129980D01*
X1821140Y2128680D01*
X1820480Y2128020D01*
X1819259Y2126080D01*
X1818500Y2123940D01*
X1818220Y2121440D01*
X1818220Y2115320D01*
X1837460Y2115320D01*
X1839120Y2114940D01*
X1840220Y2114440D01*
X1843560Y2113640D01*
X1847000Y2113480D01*
X1850400Y2113960D01*
X1851339Y2114280D01*
X1852840Y2114500D01*
X1854319Y2114140D01*
X1855540Y2113280D01*
X1856360Y2112000D01*
X1856660Y2110520D01*
X1855720Y2105660D01*
X1855720Y2102240D01*
X1856380Y2098860D01*
X1857220Y2096759D01*
X1857500Y2095260D01*
G37*
G36*
X1967740Y2225540D02*
G01*
X1984300Y2225540D01*
X1984300Y2231680D01*
X1984019Y2234160D01*
X1983260Y2236320D01*
X1982040Y2238240D01*
X1980440Y2239860D01*
X1978500Y2241080D01*
X1976360Y2241820D01*
X1973860Y2242100D01*
X1967740Y2242100D01*
G37*
G36*
X1818220Y2225540D02*
G01*
X1834780Y2225540D01*
X1834780Y2242100D01*
X1828660Y2242100D01*
X1826160Y2241820D01*
X1824019Y2241080D01*
X1822080Y2239860D01*
X1820480Y2238240D01*
X1819259Y2236320D01*
X1818500Y2234160D01*
X1818220Y2231680D01*
G37*

%LPD*%
G36*
X1907960Y2148500D02*
G01*
X1906459Y2148720D01*
X1905520Y2149060D01*
X1902120Y2149540D01*
X1898680Y2149380D01*
X1895620Y2148640D01*
X1893959Y2148580D01*
X1892420Y2149220D01*
X1891260Y2150420D01*
X1890720Y2152000D01*
X1890840Y2153640D01*
X1891420Y2155640D01*
X1891759Y2159060D01*
X1891420Y2162480D01*
X1890840Y2164480D01*
X1890720Y2166140D01*
X1891260Y2167700D01*
X1892420Y2168920D01*
X1893959Y2169540D01*
X1895620Y2169500D01*
X1898680Y2168760D01*
X1902120Y2168600D01*
X1905520Y2169080D01*
X1906459Y2169400D01*
X1907960Y2169620D01*
X1909440Y2169260D01*
X1910660Y2168400D01*
X1911480Y2167120D01*
X1911780Y2165640D01*
X1910840Y2160780D01*
X1910840Y2157360D01*
X1911780Y2152500D01*
X1911480Y2151020D01*
X1910660Y2149740D01*
X1909440Y2148860D01*
G37*

%LPD*%
D10*
X2590609Y2051999D02*
G01*
X2499198Y2143411D01*
X2499198Y2166599D01*
D11*
X2163119Y1698690D02*
G01*
X2345749Y1516060D01*
X2358437Y1516060D01*
D12*
X1626748Y2549056D02*
G01*
X1672749Y2595057D01*
X1672749Y2642057D01*
D11*
X1503721Y2271594D02*
G01*
X1505721Y2269594D01*
X1551721Y2269594D01*
X1714722Y2106594D01*
X1723999Y1994000D01*
X1844722Y1896594D01*
X2365721Y1896594D01*
X1555699Y2443699D02*
G01*
X1555699Y2386700D01*
X1651000Y2291399D01*
X2086999Y2291399D01*
X2283699Y2094699D01*
X2365699Y2094699D01*
X1604700Y2442700D02*
G01*
X1604700Y2390700D01*
X1661000Y2334400D01*
X2150000Y2334400D01*
X2292700Y2191700D01*
X2369700Y2191700D01*
X1653100Y2441957D02*
G01*
X1653100Y2441957D01*
X1653100Y2392669D01*
X2108374Y2525371D02*
G01*
X2108374Y2490371D01*
X2103874Y2485871D01*
X2103874Y2446370D01*
X2102375Y2444870D01*
X2771701Y2650673D02*
G01*
X2771701Y2552103D01*
X2920000Y2587959D02*
G01*
X2920000Y2555000D01*
X2910000Y2545000D01*
D13*
X1227947Y2551291D02*
G01*
X1317947Y2641291D01*
X1966948Y2641291D01*
X1966948Y2643959D01*
X2080281Y2757292D01*
X2206211Y1761275D02*
G01*
X2206211Y1724131D01*
X2322640Y1607703D01*
X2407640Y1607703D01*
X2509781Y1505560D01*
X2611972Y1505560D01*
D11*
X2488936Y1652121D02*
G01*
X2488936Y1617676D01*
X2491529Y1615084D01*
X2363944Y1682566D02*
G01*
X2401720Y1682566D01*
X2430240Y1654047D01*
X2452462Y1654047D01*
X2453944Y1652566D01*
X1954700Y1755999D02*
G01*
X1954700Y1808800D01*
X1976800Y1830999D01*
X2136099Y1830999D01*
X2157500Y1852399D01*
X2301099Y1852399D01*
X2360399Y1793099D01*
X2359700Y1763800D01*
D13*
X2205106Y1757406D02*
G01*
X2205106Y1809906D01*
X2205607Y1810405D01*
X2491831Y1742849D02*
G01*
X2471539Y1742849D01*
X2459690Y1730999D01*
X2430259Y1716999D02*
G01*
X2445690Y1716999D01*
X2459691Y1731001D01*
X2206468Y2445931D02*
G01*
X2246468Y2445931D01*
X2343611Y2543074D01*
D14*
X2063945Y2568157D02*
G01*
X2063945Y2611655D01*
X2063800Y2611799D01*
X2065443Y2525156D02*
G01*
X2065443Y2566156D01*
X2062443Y2569157D01*
X2148487Y2622094D02*
G01*
X2199916Y2622094D01*
X2205631Y2616379D01*
X2114202Y2622094D02*
G01*
X2114202Y2577094D01*
X2108487Y2571379D01*
X2437100Y2727100D02*
G01*
X2181300Y2727100D01*
X2114200Y2660000D01*
X2113500Y2614200D01*
D13*
X2243622Y2623595D02*
G01*
X2289623Y2623595D01*
X2305622Y2607595D01*
X2305622Y2567595D01*
X2286622Y2548595D01*
X2427155Y2553202D02*
G01*
X2762155Y2553202D01*
D11*
X2005888Y1755781D02*
G01*
X2005888Y1702781D01*
X2018888Y1689780D01*
X2094600Y1688130D02*
G01*
X2151270Y1631460D01*
X2151270Y1526464D01*
D14*
X2761499Y2729800D02*
G01*
X2435500Y2729800D01*
X2435500Y2730799D01*
D11*
X2055270Y1750466D02*
G01*
X2052604Y1747800D01*
X2052604Y1519798D01*
D13*
X2154328Y2441215D02*
G01*
X2152996Y2439883D01*
X2152996Y2379883D01*
D14*
X2108999Y2568200D02*
G01*
X2108500Y2524200D01*
X1925000Y1650000D02*
G01*
X1925000Y1515000D01*
X1825000Y1650000D02*
G01*
X1825000Y1515000D01*
X1725000Y1650000D02*
G01*
X1725000Y1515000D01*
X1625000Y1650000D02*
G01*
X1625000Y1515000D01*
X1525000Y1650000D02*
G01*
X1525000Y1515000D01*
X1225000Y1650000D02*
G01*
X1225000Y1515000D01*
X1425000Y1650000D02*
G01*
X1425000Y1515000D01*
X1325000Y1650000D02*
G01*
X1325000Y1515000D01*
D10*
X2499921Y1967210D02*
G01*
X2502921Y1964209D01*
X2502921Y1884209D01*
X2502921Y1884209D02*
G01*
X2502921Y1850210D01*
D11*
X1555200Y1755500D02*
G01*
X1555200Y1795199D01*
X1600000Y1840000D01*
X1900000Y1840000D01*
X1920000Y1820000D01*
X2205627Y2550000D02*
G01*
X2203542Y2552084D01*
X2203542Y2620000D01*
X2155195Y2444486D02*
G01*
X2155195Y2499567D01*
X2205627Y2550000D01*
X1275000Y1975000D02*
G01*
X1355000Y1975000D01*
X1455000Y2075000D01*
X1504804Y2074996D01*
X1275000Y2075000D02*
G01*
X1370000Y2075000D01*
X1420000Y2125000D01*
X1504804Y2124996D01*
X1275000Y2175000D02*
G01*
X1504804Y2174996D01*
X1275000Y2275000D02*
G01*
X1390000Y2275000D01*
X1440000Y2225000D01*
X1504804Y2224996D01*
X1705195Y2444486D02*
G01*
X1705195Y2390000D01*
X1755195Y2444486D02*
G01*
X1755195Y2410000D01*
X1755195Y2395000D01*
X1605195Y1755506D02*
G01*
X1605195Y1669805D01*
X1625001Y1650000D01*
X1705195Y1755506D02*
G01*
X1705195Y1669805D01*
X1725001Y1650000D01*
X1500000Y1715000D02*
G01*
X1500000Y1675001D01*
X1525001Y1650000D01*
X1805195Y1755506D02*
G01*
X1805000Y1755702D01*
X1805000Y1805000D01*
X1655195Y1755506D02*
G01*
X1655195Y1800000D01*
X1425001Y1650000D02*
G01*
X1425001Y1720000D01*
X1230000Y2555000D02*
G01*
X1225000Y2550000D01*
X2853119Y2655515D02*
G01*
X2894619Y2655515D01*
X2920000Y2630133D01*
X2920000Y2622040D01*
D12*
X2674290Y2385709D02*
G01*
X2655000Y2405000D01*
X2811610Y2335000D02*
G01*
X2725002Y2335000D01*
X2674291Y2385709D01*
X2811610Y2425549D02*
G01*
X2811610Y2400001D01*
X2811611Y2400000D01*
X2827002Y1969868D02*
G01*
X2825000Y1971869D01*
X2825000Y2005000D01*
X2826999Y1930549D02*
G01*
X2826999Y1969866D01*
X2811610Y2425549D02*
G01*
X2780550Y2425549D01*
X2750000Y2395000D01*
X2515000Y2335000D02*
G01*
X2510000Y2335000D01*
X2490000Y2315000D01*
X2588389Y2335000D02*
G01*
X2515000Y2335000D01*
X2577240Y2455000D02*
G01*
X2645000Y2455000D01*
X2655000Y2445000D01*
X2482759Y2455000D02*
G01*
X2433649Y2504110D01*
X2433649Y2552420D01*
X2583000Y1840000D02*
G01*
X2513130Y1840000D01*
X2502920Y1850210D01*
X2502920Y1884209D02*
G01*
X2547129Y1840000D01*
X2583000Y1840000D01*
D13*
X2491830Y1742849D02*
G01*
X2517439Y1717240D01*
X2585000Y1717240D01*
D12*
X2583000Y1840000D02*
G01*
X2826999Y1840000D01*
X2585000Y1622759D02*
G01*
X2585000Y1532539D01*
X2611970Y1505569D01*
X2826999Y1749450D02*
G01*
X2920100Y1749450D01*
X2611999Y1505599D02*
G01*
X2695600Y1505599D01*
X2920100Y1730100D01*
X2920100Y2140599D01*
X2880100Y2180599D01*
X2837399Y2180599D01*
X2836099Y2181900D01*
D15*
G01*
X2585000Y1717240D03*
G01*
X2585000Y1622759D03*
D16*
G01*
X2577240Y2455000D03*
G01*
X2482759Y2455000D03*
D17*
G01*
X2583000Y1840000D03*
D18*
G01*
X2826999Y1930549D03*
G01*
X2826999Y1840000D03*
G01*
X2826999Y1749450D03*
D19*
G01*
X2811614Y2244448D03*
G01*
X2811614Y2335000D03*
G01*
X2811614Y2425551D03*
D20*
G01*
X2588385Y2335000D03*
D21*
G01*
X2205628Y2550000D03*
G01*
X2284371Y2550000D03*
D22*
G01*
X2203540Y2620000D03*
G01*
X2246459Y2620000D03*
D23*
G01*
X2106459Y2570000D03*
G01*
X2063540Y2570000D03*
D24*
G01*
X2362570Y1763922D03*
D25*
G01*
X2362569Y1681219D03*
D26*
G01*
X2770492Y2652367D03*
D27*
G01*
X2853190Y2652370D03*
D28*
G01*
X2488043Y1653071D03*
G01*
X2453962Y1653071D03*
D29*
G01*
X2920000Y2587959D03*
D30*
G01*
X2920000Y2622040D03*
D28*
G01*
X2148507Y2621429D03*
G01*
X2114426Y2621429D03*
D31*
G01*
X2433649Y2729580D03*
G01*
X2764350Y2729580D03*
G01*
X2433649Y2552420D03*
G01*
X2764350Y2552420D03*
D32*
G01*
X2205200Y2444490D03*
G01*
X2155200Y2444490D03*
G01*
X2105200Y2444490D03*
G01*
X2055200Y2444490D03*
G01*
X2005200Y2444490D03*
G01*
X1955200Y2444490D03*
G01*
X1905200Y2444490D03*
G01*
X1855200Y2444490D03*
G01*
X1805200Y2444490D03*
G01*
X1755200Y2444490D03*
G01*
X1705200Y2444490D03*
G01*
X1655200Y2444490D03*
G01*
X1605200Y2444490D03*
G01*
X1555200Y2444490D03*
D33*
G01*
X1504799Y2375000D03*
G01*
X1504799Y2325000D03*
G01*
X1504799Y2275000D03*
G01*
X1504799Y2225000D03*
G01*
X1504799Y2175000D03*
G01*
X1504799Y2125000D03*
G01*
X1504799Y2075000D03*
G01*
X1504799Y2025000D03*
G01*
X1504799Y1975000D03*
G01*
X1504799Y1925000D03*
G01*
X1504799Y1875000D03*
G01*
X1505979Y1825000D03*
D32*
G01*
X1555200Y1755509D03*
G01*
X1605200Y1755509D03*
G01*
X1655200Y1755509D03*
G01*
X1705200Y1755509D03*
G01*
X1755200Y1755509D03*
G01*
X1805200Y1755509D03*
G01*
X1855200Y1755509D03*
G01*
X1905200Y1755509D03*
G01*
X1955200Y1755509D03*
G01*
X2005200Y1755509D03*
G01*
X2055200Y1755509D03*
G01*
X2105200Y1755509D03*
G01*
X2155200Y1755509D03*
G01*
X2205200Y1755509D03*
D34*
G01*
X1901250Y2159059D03*
G01*
X1901250Y2214180D03*
G01*
X1901250Y2103939D03*
G01*
X1956369Y2103939D03*
G01*
X1956369Y2159059D03*
G01*
X1956369Y2214180D03*
G01*
X1846139Y2214180D03*
G01*
X1846130Y2159059D03*
G01*
X1846139Y2103939D03*
D23*
G01*
X2106459Y2525000D03*
G01*
X2063540Y2525000D03*
D35*
G01*
X2497333Y2265666D03*
D36*
G01*
X2497330Y2165670D03*
G01*
X2497330Y2065670D03*
G01*
X2497330Y1965670D03*
G01*
X1225000Y2550000D03*
G01*
X1325000Y2550000D03*
G01*
X1425000Y2550000D03*
G01*
X1525000Y2550000D03*
G01*
X1625000Y2550000D03*
G01*
X1725000Y2550000D03*
G01*
X1825000Y2550000D03*
D37*
G01*
X1925000Y2550000D03*
D38*
G01*
X1925000Y1515000D03*
D39*
G01*
X1825000Y1515000D03*
G01*
X1725000Y1515000D03*
G01*
X1625000Y1515000D03*
G01*
X1525000Y1515000D03*
G01*
X1425000Y1515000D03*
G01*
X1325000Y1515000D03*
G01*
X1225000Y1515000D03*
D36*
G01*
X1225000Y1650000D03*
G01*
X1325000Y1650000D03*
G01*
X1425000Y1650000D03*
G01*
X1525000Y1650000D03*
G01*
X1625000Y1650000D03*
G01*
X1725000Y1650000D03*
G01*
X1825000Y1650000D03*
D37*
G01*
X1925000Y1650000D03*
D35*
G01*
X2370000Y2395000D03*
D36*
G01*
X2370000Y2295000D03*
G01*
X2370000Y2195000D03*
G01*
X2370000Y2095000D03*
G01*
X2370000Y1995000D03*
G01*
X2370000Y1895000D03*
D40*
G01*
X1275000Y1975000D03*
D36*
G01*
X1275000Y2075000D03*
G01*
X1275000Y2175000D03*
G01*
X1275000Y2275000D03*
D40*
G01*
X2055000Y1515000D03*
D36*
G01*
X2155000Y1515000D03*
G01*
X2255000Y1515000D03*
G01*
X2355000Y1515000D03*
D41*
G01*
X1925000Y2720000D03*
D39*
G01*
X1825000Y2720000D03*
G01*
X1725000Y2720000D03*
G01*
X1625000Y2720000D03*
G01*
X1525000Y2720000D03*
G01*
X1425000Y2720000D03*
G01*
X1325000Y2720000D03*
G01*
X1225000Y2720000D03*
D42*
G01*
X2840000Y2085000D03*
D43*
G01*
X2840000Y2185000D03*
D44*
G01*
X1928819Y2159070D03*
G01*
X1873699Y2159070D03*
G01*
X1873699Y2103950D03*
G01*
X1928819Y2103950D03*
G01*
X1956379Y2131509D03*
G01*
X1901260Y2131509D03*
G01*
X1846139Y2131509D03*
G01*
X1873699Y2214189D03*
G01*
X1928819Y2214189D03*
G01*
X1956379Y2186630D03*
G01*
X1901260Y2186630D03*
G01*
X1846139Y2186630D03*
D45*
G01*
X1425000Y1720000D03*
G01*
X1655200Y1800000D03*
G01*
X1500000Y1715000D03*
G01*
X1805000Y1805000D03*
G01*
X1755200Y2395000D03*
G01*
X1705200Y2390000D03*
G01*
X1920000Y1820000D03*
G01*
X2502920Y1850210D03*
G01*
X2502920Y1884209D03*
G01*
X2151660Y2379879D03*
G01*
X2094600Y1688130D03*
G01*
X2163119Y1698690D03*
G01*
X2018890Y1689780D03*
G01*
X2430259Y1716999D03*
G01*
X2459690Y1730999D03*
G01*
X2491830Y1742849D03*
G01*
X2063800Y2611799D03*
G01*
X2344660Y2545799D03*
G01*
X2366090Y2587229D03*
G01*
X2205609Y1810410D03*
G01*
X2491530Y1612590D03*
G01*
X2563400Y1506990D03*
G01*
X2611970Y1505569D03*
G01*
X2589809Y2557669D03*
G01*
X2621809Y2552669D03*
G01*
X2077809Y2753670D03*
G01*
X2910000Y2545000D03*
G01*
X1653100Y2392669D03*
G01*
X2018720Y2149589D03*
G01*
X2018720Y2120590D03*
G01*
X2015720Y2088589D03*
G01*
X2020720Y2040590D03*
G01*
X1672749Y2642060D03*
G01*
X2655000Y2405000D03*
G01*
X2674290Y2385709D03*
G01*
X2811610Y2400000D03*
G01*
X2850000Y2385000D03*
G01*
X2825000Y2005000D03*
G01*
X2826999Y1969870D03*
G01*
X2750000Y2395000D03*
G01*
X2490000Y2315000D03*
G01*
X2515000Y2335000D03*
G01*
X2655000Y2445000D03*
G01*
X2657759Y2160000D03*
G01*
X2657759Y2124729D03*
M02*
