G04 Layer: BottomSolderMaskLayer*
G04 EasyEDA v6.5.44, 2024-09-01 12:15:54*
G04 62699ee94d054cea995aae1e18215b50,9332716679504667801b7cb99b0421ba,10*
G04 Gerber Generator version 0.2*
G04 Scale: 100 percent, Rotated: No, Reflected: No *
G04 Dimensions in inches *
G04 leading zeros omitted , absolute positions ,3 integer and 6 decimal *
%FSLAX36Y36*%
%MOIN*%

%AMMACRO1*4,1,8,-0.0244,-0.0315,-0.0256,-0.0303,-0.0256,0.0304,-0.0244,0.0315,0.0244,0.0315,0.0256,0.0304,0.0256,-0.0303,0.0244,-0.0315,-0.0244,-0.0315,0*%
%AMMACRO2*4,1,8,-0.0343,-0.0355,-0.0355,-0.0343,-0.0355,0.0343,-0.0343,0.0355,0.0343,0.0355,0.0355,0.0343,0.0355,-0.0343,0.0343,-0.0355,-0.0343,-0.0355,0*%
%AMMACRO3*4,1,8,-0.0318,-0.0355,-0.033,-0.0343,-0.033,0.0343,-0.0318,0.0355,0.0318,0.0355,0.033,0.0343,0.033,-0.0343,0.0318,-0.0355,-0.0318,-0.0355,0*%
%AMMACRO4*4,1,8,-0.0363,-0.0374,-0.0374,-0.0362,-0.0374,0.0363,-0.0363,0.0374,0.0362,0.0374,0.0374,0.0363,0.0374,-0.0362,0.0362,-0.0374,-0.0363,-0.0374,0*%
%AMMACRO5*4,1,8,-0.0323,-0.0335,-0.0335,-0.0323,-0.0335,0.0323,-0.0323,0.0335,0.0323,0.0335,0.0335,0.0323,0.0335,-0.0323,0.0323,-0.0335,-0.0323,-0.0335,0*%
%ADD10MACRO1*%
%ADD11MACRO2*%
%ADD12C,0.0709*%
%ADD13MACRO3*%
%ADD14MACRO4*%
%ADD15C,0.0749*%
%ADD16MACRO5*%
%ADD17C,0.0670*%

%LPD*%
D10*
G01*
X2752240Y2035000D03*
G01*
X2657759Y2035000D03*
G01*
X2752240Y1965000D03*
G01*
X2657759Y1965000D03*
D11*
G01*
X2497334Y2265664D03*
D12*
G01*
X2497330Y2165670D03*
G01*
X2497330Y2065670D03*
G01*
X2497330Y1965670D03*
G01*
X1225000Y2550000D03*
G01*
X1325000Y2550000D03*
G01*
X1425000Y2550000D03*
G01*
X1525000Y2550000D03*
G01*
X1625000Y2550000D03*
G01*
X1725000Y2550000D03*
G01*
X1825000Y2550000D03*
D13*
G01*
X1925000Y2549994D03*
D14*
G01*
X1925000Y1515000D03*
D15*
G01*
X1825000Y1515000D03*
G01*
X1725000Y1515000D03*
G01*
X1625000Y1515000D03*
G01*
X1525000Y1515000D03*
G01*
X1425000Y1515000D03*
G01*
X1325000Y1515000D03*
G01*
X1225000Y1515000D03*
D12*
G01*
X1225000Y1650000D03*
G01*
X1325000Y1650000D03*
G01*
X1425000Y1650000D03*
G01*
X1525000Y1650000D03*
G01*
X1625000Y1650000D03*
G01*
X1725000Y1650000D03*
G01*
X1825000Y1650000D03*
D13*
G01*
X1925000Y1649994D03*
D11*
G01*
X2370004Y2394994D03*
D12*
G01*
X2370000Y2295000D03*
G01*
X2370000Y2195000D03*
G01*
X2370000Y2095000D03*
G01*
X2370000Y1995000D03*
G01*
X2370000Y1895000D03*
D11*
G01*
X1275000Y1974994D03*
D12*
G01*
X1275000Y2075000D03*
G01*
X1275000Y2175000D03*
G01*
X1275000Y2275000D03*
D11*
G01*
X2055004Y1514994D03*
D12*
G01*
X2155000Y1515000D03*
G01*
X2255000Y1515000D03*
G01*
X2355000Y1515000D03*
D14*
G01*
X1925000Y2720000D03*
D15*
G01*
X1825000Y2720000D03*
G01*
X1725000Y2720000D03*
G01*
X1625000Y2720000D03*
G01*
X1525000Y2720000D03*
G01*
X1425000Y2720000D03*
G01*
X1325000Y2720000D03*
G01*
X1225000Y2720000D03*
D16*
G01*
X2840000Y2085000D03*
D17*
G01*
X2840000Y2185000D03*
M02*
