M48
METRIC,LZ,000.000
;FILE_FORMAT=3:3
;TYPE=PLATED
;Layer: PTH_Through
;EasyEDA v6.5.44, 2024-09-01 12:15:54
;53d8b5472e5b460ebcb2cbf6e45b9b15,9332716679504667801b7cb99b0421ba,10
;Gerber Generator version 0.2
;Holesize 1 = 0.310 mm
T01C0.310
;Holesize 2 = 0.762 mm
T02C0.762
;Holesize 3 = 0.800 mm
T03C0.800
;Holesize 4 = 0.901 mm
T04C0.901
;Holesize 5 = 1.000 mm
T05C1.000
;Holesize 6 = 1.050 mm
T06C1.050
;Holesize 7 = 1.101 mm
T07C1.101
%
G05
G90
T01
X035560Y031115
X038354Y034036
X043434Y034290
X053086Y027813
X037592Y029972
X037592Y029088
X037592Y028402
X032004Y034798
X032004Y035723
X032004Y036630
T02
X050927Y039624
X053467Y042164
X050927Y044704
T03
X037315Y003556
X050315Y003556
X011534Y002921
X024534Y002921
X010010Y049149
X023010Y049149
X033759Y044831
X046759Y044831
X051435Y019835
X051435Y006835
T04
X027813Y016764
X027813Y014224
X028194Y011557
X028194Y009017
X028194Y006731
X028194Y004191
X044704Y010795
X044704Y013335
X038101Y026796
X040641Y026796
X043435Y027050
X045975Y027050
X047879Y027051
X050419Y027051
X040767Y015367
X040767Y012827
X016764Y026542
X014224Y026542
X011176Y027686
X011176Y025146
X015367Y016891
X015367Y014351
X012319Y011811
X012319Y009271
X027432Y037973
X027432Y040513
X007493Y026416
X004953Y026416
X015621Y038100
X013081Y038100
X012446Y041402
X009906Y041402
X027559Y042545
X027559Y045085
X027559Y046990
X027559Y049530
X038100Y037592
X040640Y037592
X041148Y041021
X043688Y041021
T05
X036279Y048006
X046779Y048006
T06
X053467Y034798
X053467Y037338
T07
X032509Y051943
X048009Y051943
M30
