G04 Layer: BottomLayer*
G04 EasyEDA v6.5.44, 2024-09-01 12:15:54*
G04 53d8b5472e5b460ebcb2cbf6e45b9b15,9332716679504667801b7cb99b0421ba,10*
G04 Gerber Generator version 0.2*
G04 Scale: 100 percent, Rotated: No, Reflected: No *
G04 Dimensions in millimeters *
G04 leading zeros omitted , absolute positions ,4 integer and 5 decimal *
%FSLAX45Y45*%
%MOMM*%

%ADD10C,0.6350*%
%ADD11C,1.5240*%
%ADD12C,1.6000*%
%ADD13C,1.5000*%
%ADD14C,1.8796*%
%ADD15R,1.6000X1.6000*%
%ADD16C,0.6200*%
%ADD17C,0.0165*%

%LPD*%
G36*
X2595016Y1549400D02*
G01*
X2591104Y1550162D01*
X2587802Y1552397D01*
X2528011Y1612188D01*
X2526284Y1612900D01*
X2518816Y1612900D01*
X2514904Y1613662D01*
X2511602Y1615897D01*
X2276297Y1851202D01*
X2274062Y1854504D01*
X2273300Y1858416D01*
X2273300Y1878584D01*
X2272588Y1880311D01*
X2172411Y1980488D01*
X2170887Y1981250D01*
X1985010Y1993646D01*
X1981504Y1994509D01*
X1978507Y1996592D01*
X1793697Y2181402D01*
X1791462Y2184704D01*
X1790700Y2188616D01*
X1790700Y2208784D01*
X1789988Y2210511D01*
X1613611Y2386888D01*
X1611884Y2387600D01*
X1586636Y2387600D01*
X1582724Y2388362D01*
X1579422Y2390597D01*
X1577238Y2393848D01*
X1576476Y2397760D01*
X1577238Y2401671D01*
X1579422Y2404922D01*
X1599488Y2424988D01*
X1600098Y2426258D01*
X1575054Y2538933D01*
X1574800Y2541117D01*
X1574800Y2582875D01*
X1575612Y2586837D01*
X1577949Y2590190D01*
X1581404Y2592374D01*
X1585417Y2593035D01*
X1589328Y2592019D01*
X1592580Y2589580D01*
X1601571Y2579319D01*
X1611985Y2570226D01*
X1623466Y2562504D01*
X1630070Y2559253D01*
X1630070Y2607868D01*
X1584960Y2607868D01*
X1581048Y2608630D01*
X1577797Y2610866D01*
X1575562Y2614117D01*
X1574800Y2618028D01*
X1574800Y2690418D01*
X1575562Y2694279D01*
X1577797Y2697581D01*
X1581048Y2699816D01*
X1584960Y2700578D01*
X1630070Y2700578D01*
X1630070Y2749143D01*
X1623466Y2745892D01*
X1611985Y2738221D01*
X1601571Y2729077D01*
X1592580Y2718866D01*
X1589328Y2716428D01*
X1585417Y2715412D01*
X1581404Y2716072D01*
X1577949Y2718206D01*
X1575612Y2721559D01*
X1574800Y2725572D01*
X1574800Y2856077D01*
X1575206Y2858871D01*
X1598117Y2939034D01*
X1600149Y2942844D01*
X1603603Y2945485D01*
X1607870Y2946400D01*
X1700784Y2946400D01*
X1702511Y2947111D01*
X1802688Y3047288D01*
X1803400Y3049016D01*
X1803400Y3335883D01*
X1804162Y3339795D01*
X1806397Y3343097D01*
X1978406Y3515106D01*
X1981504Y3517239D01*
X1985162Y3518052D01*
X2284984Y3530549D01*
X2286609Y3531209D01*
X2450388Y3694988D01*
X2451100Y3696715D01*
X2451150Y3721658D01*
X2475484Y3940657D01*
X2476550Y3944213D01*
X2478836Y3947109D01*
X2481986Y3949039D01*
X2485593Y3949700D01*
X2513584Y3949700D01*
X2515311Y3950411D01*
X2537002Y3972102D01*
X2540304Y3974337D01*
X2544216Y3975100D01*
X2666034Y3975100D01*
X2669641Y3974439D01*
X2672740Y3972560D01*
X2678734Y3967327D01*
X2690266Y3959606D01*
X2702712Y3953459D01*
X2715818Y3949039D01*
X2729382Y3946347D01*
X2743200Y3945432D01*
X2757017Y3946347D01*
X2770632Y3949039D01*
X2783738Y3953459D01*
X2796133Y3959606D01*
X2807665Y3967327D01*
X2813659Y3972560D01*
X2816809Y3974439D01*
X2820365Y3975100D01*
X3043783Y3975100D01*
X3047695Y3974337D01*
X3050997Y3972102D01*
X3083102Y3939997D01*
X3085338Y3936695D01*
X3086100Y3932783D01*
X3086100Y3849115D01*
X3086811Y3847388D01*
X3273602Y3660597D01*
X3275838Y3657295D01*
X3276600Y3653383D01*
X3276600Y3595115D01*
X3277311Y3593388D01*
X3308350Y3562350D01*
X3400653Y3654653D01*
X3403904Y3656837D01*
X3407765Y3657650D01*
X3770325Y3660495D01*
X3773678Y3659936D01*
X3782618Y3656888D01*
X3796182Y3654196D01*
X3810000Y3653282D01*
X3823817Y3654196D01*
X3837432Y3656888D01*
X3848252Y3660597D01*
X3851452Y3661105D01*
X4018838Y3662426D01*
X4023512Y3661359D01*
X4036618Y3656888D01*
X4050182Y3654196D01*
X4064000Y3653282D01*
X4077817Y3654196D01*
X4091432Y3656888D01*
X4104538Y3661359D01*
X4108196Y3662883D01*
X4110482Y3663187D01*
X5012232Y3670249D01*
X5016195Y3669487D01*
X5019497Y3667302D01*
X5041188Y3645611D01*
X5042916Y3644900D01*
X5286502Y3644900D01*
X5289448Y3644442D01*
X5293766Y3642106D01*
X5306161Y3635959D01*
X5319318Y3631539D01*
X5332882Y3628796D01*
X5346700Y3627932D01*
X5360517Y3628796D01*
X5374081Y3631539D01*
X5387238Y3635959D01*
X5399633Y3642106D01*
X5403951Y3644442D01*
X5406898Y3644900D01*
X5456783Y3644900D01*
X5460695Y3644137D01*
X5463997Y3641902D01*
X5470702Y3635197D01*
X5472938Y3631895D01*
X5473700Y3627983D01*
X5473700Y3293516D01*
X5472938Y3289604D01*
X5470702Y3286302D01*
X5413197Y3228797D01*
X5409895Y3226562D01*
X5405983Y3225800D01*
X4331716Y3225800D01*
X4329988Y3225088D01*
X4244797Y3139897D01*
X4241495Y3137662D01*
X4237583Y3136900D01*
X3988815Y3136900D01*
X3987088Y3136188D01*
X3892550Y3041650D01*
X3934002Y3000197D01*
X3936237Y2996895D01*
X3937000Y2992983D01*
X3937000Y2899816D01*
X3936237Y2895904D01*
X3934002Y2892602D01*
X3925011Y2883611D01*
X3924300Y2881884D01*
X3924300Y2730398D01*
X3923284Y2725978D01*
X3921302Y2722981D01*
X3923537Y2719679D01*
X3924300Y2715768D01*
X3924300Y2643428D01*
X3923537Y2639517D01*
X3921048Y2636012D01*
X3923284Y2633218D01*
X3924300Y2628798D01*
X3924300Y2506116D01*
X3923537Y2502204D01*
X3921302Y2498902D01*
X3709111Y2286711D01*
X3708349Y2285187D01*
X3695954Y2111959D01*
X3695090Y2108504D01*
X3693007Y2105507D01*
X3571697Y1984197D01*
X3568395Y1981962D01*
X3564483Y1981200D01*
X3404615Y1981200D01*
X3402888Y1980488D01*
X3074111Y1651711D01*
X3073400Y1649984D01*
X3073400Y1617116D01*
X3072638Y1613204D01*
X3070402Y1609902D01*
X3012897Y1552397D01*
X3009595Y1550162D01*
X3005683Y1549400D01*
G37*

%LPC*%
G36*
X2734919Y1581454D02*
G01*
X2734919Y1630019D01*
X2686354Y1630019D01*
X2689606Y1623466D01*
X2697276Y1611934D01*
X2706420Y1601520D01*
X2716834Y1592376D01*
X2728366Y1584706D01*
G37*
G36*
X2827629Y1581454D02*
G01*
X2834233Y1584706D01*
X2845765Y1592376D01*
X2856179Y1601520D01*
X2865272Y1611934D01*
X2872994Y1623466D01*
X2876245Y1630019D01*
X2827629Y1630019D01*
G37*
G36*
X2827629Y1722729D02*
G01*
X2876245Y1722729D01*
X2872994Y1729333D01*
X2865272Y1740865D01*
X2856179Y1751279D01*
X2845765Y1760372D01*
X2834233Y1768093D01*
X2827629Y1771345D01*
G37*
G36*
X2686354Y1722729D02*
G01*
X2734919Y1722729D01*
X2734919Y1771345D01*
X2728366Y1768093D01*
X2716834Y1760372D01*
X2706420Y1751279D01*
X2697276Y1740865D01*
X2689606Y1729333D01*
G37*
G36*
X2759202Y2064156D02*
G01*
X2795981Y2065629D01*
X2832658Y2069084D01*
X2869082Y2074519D01*
X2905201Y2081885D01*
X2940812Y2091182D01*
X2975914Y2102358D01*
X3010357Y2115413D01*
X3044037Y2130298D01*
X3076854Y2147011D01*
X3108756Y2165400D01*
X3139643Y2185517D01*
X3169361Y2207260D01*
X3197910Y2230526D01*
X3225139Y2255316D01*
X3250996Y2281529D01*
X3275431Y2309114D01*
X3298342Y2337968D01*
X3319678Y2367991D01*
X3339337Y2399080D01*
X3357321Y2431237D01*
X3373577Y2464308D01*
X3388004Y2498191D01*
X3400602Y2532786D01*
X3411321Y2568041D01*
X3420110Y2603804D01*
X3427018Y2639974D01*
X3431946Y2676448D01*
X3434892Y2713177D01*
X3435908Y2750007D01*
X3434892Y2786786D01*
X3431946Y2823514D01*
X3427018Y2860040D01*
X3420110Y2896209D01*
X3411321Y2931972D01*
X3400602Y2967177D01*
X3388004Y3001822D01*
X3373577Y3035706D01*
X3357321Y3068726D01*
X3339337Y3100882D01*
X3319678Y3132023D01*
X3298342Y3162046D01*
X3275431Y3190900D01*
X3250996Y3218434D01*
X3225139Y3244646D01*
X3197910Y3269437D01*
X3169361Y3292754D01*
X3139643Y3314496D01*
X3108756Y3334562D01*
X3076854Y3353003D01*
X3044037Y3369665D01*
X3010357Y3384550D01*
X2975914Y3397605D01*
X2940812Y3408832D01*
X2905201Y3418128D01*
X2869082Y3425494D01*
X2832658Y3430879D01*
X2795981Y3434334D01*
X2759202Y3435858D01*
X2722372Y3435350D01*
X2685643Y3432860D01*
X2649067Y3428441D01*
X2612796Y3422040D01*
X2576931Y3413709D01*
X2541524Y3403447D01*
X2506776Y3391306D01*
X2472690Y3377336D01*
X2439416Y3361537D01*
X2407056Y3344011D01*
X2375662Y3324758D01*
X2345334Y3303828D01*
X2316175Y3281273D01*
X2288286Y3257245D01*
X2261768Y3231743D01*
X2236571Y3204819D01*
X2212898Y3176625D01*
X2190800Y3147161D01*
X2170277Y3116580D01*
X2151430Y3084931D01*
X2134311Y3052318D01*
X2118969Y3018840D01*
X2105456Y2984601D01*
X2093772Y2949651D01*
X2084019Y2914142D01*
X2076196Y2878175D01*
X2070252Y2841802D01*
X2066340Y2805176D01*
X2064359Y2768396D01*
X2064359Y2731566D01*
X2066340Y2694787D01*
X2070252Y2658160D01*
X2076196Y2621838D01*
X2084019Y2585872D01*
X2093772Y2550312D01*
X2105456Y2515412D01*
X2118969Y2481122D01*
X2134311Y2447645D01*
X2151430Y2415032D01*
X2170277Y2383383D01*
X2190800Y2352802D01*
X2212898Y2323388D01*
X2236571Y2295144D01*
X2261768Y2268270D01*
X2288286Y2242718D01*
X2316175Y2218690D01*
X2345334Y2196185D01*
X2375662Y2175256D01*
X2407056Y2156002D01*
X2439416Y2138426D01*
X2472690Y2122627D01*
X2506776Y2108657D01*
X2541524Y2096516D01*
X2576931Y2086305D01*
X2612796Y2077974D01*
X2649067Y2071573D01*
X2685643Y2067102D01*
X2722372Y2064664D01*
G37*
G36*
X1722780Y2559253D02*
G01*
X1729384Y2562504D01*
X1740916Y2570226D01*
X1751330Y2579319D01*
X1760423Y2589733D01*
X1768144Y2601264D01*
X1771396Y2607868D01*
X1722780Y2607868D01*
G37*
G36*
X3856380Y2584653D02*
G01*
X3862984Y2587904D01*
X3874515Y2595575D01*
X3884929Y2604719D01*
X3894074Y2615133D01*
X3901744Y2626664D01*
X3904996Y2633268D01*
X3856380Y2633268D01*
G37*
G36*
X3763721Y2584653D02*
G01*
X3763721Y2633268D01*
X3715105Y2633268D01*
X3718356Y2626664D01*
X3726027Y2615133D01*
X3735171Y2604719D01*
X3745585Y2595575D01*
X3757117Y2587904D01*
G37*
G36*
X1722780Y2700578D02*
G01*
X1771396Y2700578D01*
X1768144Y2707182D01*
X1760423Y2718663D01*
X1751330Y2729077D01*
X1740916Y2738221D01*
X1729384Y2745892D01*
X1722780Y2749143D01*
G37*
G36*
X3856380Y2725928D02*
G01*
X3904996Y2725928D01*
X3901744Y2732532D01*
X3894074Y2744063D01*
X3884929Y2754477D01*
X3874515Y2763621D01*
X3862984Y2771292D01*
X3856380Y2774543D01*
G37*
G36*
X3715105Y2725928D02*
G01*
X3763721Y2725928D01*
X3763721Y2774543D01*
X3757117Y2771292D01*
X3745585Y2763621D01*
X3735171Y2754477D01*
X3726027Y2744063D01*
X3718356Y2732532D01*
G37*
G36*
X3558438Y3054654D02*
G01*
X3567988Y3055924D01*
X3577183Y3058718D01*
X3585819Y3063087D01*
X3593592Y3068828D01*
X3600246Y3075787D01*
X3605631Y3083763D01*
X3609644Y3092551D01*
X3612032Y3101898D01*
X3612896Y3111500D01*
X3612032Y3121101D01*
X3609644Y3130448D01*
X3605631Y3139236D01*
X3600246Y3147212D01*
X3593592Y3154172D01*
X3585819Y3159912D01*
X3577183Y3164281D01*
X3567988Y3167075D01*
X3558438Y3168345D01*
X3548786Y3167888D01*
X3539337Y3165856D01*
X3530396Y3162300D01*
X3522167Y3157220D01*
X3514953Y3150870D01*
X3508857Y3143351D01*
X3504184Y3134918D01*
X3500983Y3125825D01*
X3499358Y3116326D01*
X3499358Y3106674D01*
X3500983Y3097174D01*
X3504184Y3088081D01*
X3508857Y3079648D01*
X3514953Y3072130D01*
X3522167Y3065780D01*
X3530396Y3060700D01*
X3539337Y3057144D01*
X3548786Y3055112D01*
G37*
G36*
X3837838Y3346754D02*
G01*
X3847388Y3348024D01*
X3856583Y3350818D01*
X3865219Y3355187D01*
X3872992Y3360928D01*
X3879646Y3367887D01*
X3885031Y3375863D01*
X3889044Y3384651D01*
X3891432Y3393998D01*
X3892296Y3403600D01*
X3891432Y3413201D01*
X3889044Y3422548D01*
X3885031Y3431336D01*
X3879646Y3439312D01*
X3872992Y3446272D01*
X3865219Y3452012D01*
X3856583Y3456381D01*
X3847388Y3459175D01*
X3837838Y3460445D01*
X3828186Y3459987D01*
X3818737Y3457956D01*
X3809796Y3454400D01*
X3801567Y3449320D01*
X3794353Y3442970D01*
X3788257Y3435451D01*
X3783584Y3427018D01*
X3780383Y3417925D01*
X3778758Y3408426D01*
X3778758Y3398774D01*
X3780383Y3389274D01*
X3783584Y3380181D01*
X3788257Y3371748D01*
X3794353Y3364229D01*
X3801567Y3357879D01*
X3809796Y3352800D01*
X3818737Y3349244D01*
X3828186Y3347212D01*
G37*
G36*
X5267248Y3373882D02*
G01*
X5300370Y3373882D01*
X5300370Y3433470D01*
X5240782Y3433470D01*
X5240782Y3400348D01*
X5241493Y3394049D01*
X5243423Y3388563D01*
X5246471Y3383686D01*
X5250586Y3379571D01*
X5255463Y3376523D01*
X5260949Y3374593D01*
G37*
G36*
X5393029Y3373882D02*
G01*
X5426151Y3373882D01*
X5432450Y3374593D01*
X5437936Y3376523D01*
X5442813Y3379571D01*
X5446928Y3383686D01*
X5449976Y3388563D01*
X5451906Y3394049D01*
X5452618Y3400348D01*
X5452618Y3433470D01*
X5393029Y3433470D01*
G37*
G36*
X5240782Y3526129D02*
G01*
X5300370Y3526129D01*
X5300370Y3585718D01*
X5267248Y3585718D01*
X5260949Y3585006D01*
X5255463Y3583076D01*
X5250586Y3580028D01*
X5246471Y3575913D01*
X5243423Y3571036D01*
X5241493Y3565550D01*
X5240782Y3559251D01*
G37*
G36*
X5393029Y3526129D02*
G01*
X5452618Y3526129D01*
X5452618Y3559251D01*
X5451906Y3565550D01*
X5449976Y3571036D01*
X5446928Y3575913D01*
X5442813Y3580028D01*
X5437936Y3583076D01*
X5432450Y3585006D01*
X5426151Y3585718D01*
X5393029Y3585718D01*
G37*
G36*
X2696870Y3702354D02*
G01*
X2696870Y3750970D01*
X2648254Y3750970D01*
X2651506Y3744366D01*
X2659227Y3732834D01*
X2668320Y3722420D01*
X2678734Y3713327D01*
X2690266Y3705606D01*
G37*
G36*
X2789580Y3702354D02*
G01*
X2796133Y3705606D01*
X2807665Y3713327D01*
X2818079Y3722420D01*
X2827223Y3732834D01*
X2834894Y3744366D01*
X2838145Y3750970D01*
X2789580Y3750970D01*
G37*
G36*
X2648254Y3843680D02*
G01*
X2696870Y3843680D01*
X2696870Y3892245D01*
X2690266Y3888994D01*
X2678734Y3881323D01*
X2668320Y3872179D01*
X2659227Y3861765D01*
X2651506Y3850233D01*
G37*
G36*
X2789580Y3843680D02*
G01*
X2838145Y3843680D01*
X2834894Y3850233D01*
X2827223Y3861765D01*
X2818079Y3872179D01*
X2807665Y3881323D01*
X2796133Y3888994D01*
X2789580Y3892245D01*
G37*

%LPD*%
D10*
X3810035Y2679613D02*
G01*
X3086221Y1955800D01*
X2527300Y1955800D01*
X1828901Y2654198D01*
X1676450Y2654198D01*
X1000988Y4914900D02*
G01*
X990607Y4904519D01*
X990607Y4140192D01*
X1231907Y927107D02*
G01*
X1153388Y848588D01*
X1153388Y292100D01*
X4076712Y1282705D02*
G01*
X3731488Y937483D01*
X3731488Y355600D01*
X4470392Y1333492D02*
G01*
X5120411Y1983511D01*
X5143500Y1983511D01*
X1117600Y2768600D02*
G01*
X1231900Y2654300D01*
X1422400Y2654300D01*
X4063992Y3759207D02*
G01*
X4114792Y3810007D01*
X4114792Y4102107D01*
X5346700Y3479800D02*
G01*
X5295900Y3429000D01*
X4343400Y3429000D01*
X5041900Y2705100D02*
G01*
X5041900Y2501900D01*
X4076700Y1536700D01*
X3375888Y4483100D02*
G01*
X3987800Y4483100D01*
X4368792Y4102107D01*
X1562100Y3810000D02*
G01*
X495300Y2743200D01*
X495300Y2641600D01*
X3200400Y3572322D02*
G01*
X3200400Y3479800D01*
X3200400Y3663035D02*
G01*
X3200400Y3572322D01*
X2755892Y4254492D02*
G01*
X3200400Y3809984D01*
X3200400Y3663035D01*
X4673600Y4470400D02*
G01*
X4673600Y4214088D01*
X4937988Y3949700D01*
X5090388Y3949700D01*
X2298700Y4902200D02*
G01*
X2578100Y5181600D01*
X3248659Y5181600D01*
X3625595Y4787900D02*
G01*
X4356100Y4787900D01*
X4675911Y4483100D01*
D11*
G01*
X5092700Y3962400D03*
G01*
X5346700Y4216400D03*
G01*
X5092700Y4470400D03*
D12*
G01*
X2781300Y1676400D03*
G01*
X2781300Y1422400D03*
G01*
X2819400Y1155700D03*
G01*
X2819400Y901700D03*
G01*
X2819400Y673100D03*
G01*
X2819400Y419100D03*
G01*
X4470400Y1079500D03*
G01*
X4470400Y1333500D03*
D13*
G01*
X3731488Y355600D03*
G01*
X5031511Y355600D03*
D12*
G01*
X3810025Y2679623D03*
G01*
X4064025Y2679623D03*
G01*
X4343425Y2705023D03*
G01*
X4597425Y2705023D03*
G01*
X4787900Y2705100D03*
G01*
X5041900Y2705100D03*
G01*
X4076700Y1536700D03*
G01*
X4076700Y1282700D03*
G01*
X1676450Y2654198D03*
G01*
X1422450Y2654198D03*
G01*
X1117600Y2768600D03*
G01*
X1117600Y2514600D03*
G01*
X1536700Y1689100D03*
G01*
X1536700Y1435100D03*
G01*
X1231900Y1181100D03*
G01*
X1231900Y927100D03*
G01*
X2743200Y3797300D03*
G01*
X2743200Y4051300D03*
G01*
X749300Y2641600D03*
G01*
X495300Y2641600D03*
G01*
X1562100Y3810000D03*
G01*
X1308100Y3810000D03*
G01*
X1244600Y4140200D03*
G01*
X990600Y4140200D03*
G01*
X2755900Y4254500D03*
G01*
X2755900Y4508500D03*
G01*
X2755900Y4699000D03*
G01*
X2755900Y4953000D03*
G01*
X3810000Y3759200D03*
G01*
X4064000Y3759200D03*
G01*
X4114800Y4102100D03*
G01*
X4368800Y4102100D03*
D14*
G01*
X3250895Y5194300D03*
G01*
X4800904Y5194300D03*
D13*
G01*
X1153388Y292100D03*
G01*
X2453411Y292100D03*
D14*
G01*
X3627907Y4800600D03*
G01*
X4677892Y4800600D03*
D13*
G01*
X1000988Y4914900D03*
G01*
X2301011Y4914900D03*
G01*
X3375888Y4483100D03*
G01*
X4675911Y4483100D03*
D15*
G01*
X5346700Y3479800D03*
D12*
G01*
X5346700Y3733800D03*
D13*
G01*
X5143500Y1983511D03*
G01*
X5143500Y683488D03*
D16*
G01*
X3556000Y3111500D03*
G01*
X3835400Y3403600D03*
G01*
X4343400Y3429000D03*
G01*
X5308600Y2781300D03*
G01*
X3759200Y2997200D03*
G01*
X3759200Y2908782D03*
G01*
X3759200Y2840202D03*
G01*
X3200400Y3479800D03*
G01*
X3200400Y3572332D03*
G01*
X3200400Y3663035D03*
M02*
